<svg width="76" height="8" viewBox="0 0 76 8" fill="none" xmlns="http://www.w3.org/2000/svg">
<path d="M74.8039 0.537365C74.8111 0.543082 75.8127 0.342999 76 0.331566V8H0V0.331566C0.266591 0.314416 0.525971 0.0914664 0.792562 0.0800331C1.05195 0.0685998 1.58513 0 1.85172 0C2.39211 0 3.97003 0.142916 4.4744 0.2058C5.02919 0.268683 5.95866 0.600249 6.50625 0.640265C7.06105 0.680282 7.63026 0.577382 8.17785 0.617399C8.72544 0.657415 9.21539 1.06901 9.76299 1.13761C10.3034 1.20621 10.7213 1.53778 11.2617 1.65783C11.694 1.76073 12.3857 1.49776 12.9621 1.52063C13.4736 1.5435 14.0573 1.04615 14.5688 1.06901C15.1452 1.0976 15.6136 1.65783 16.0459 1.76073C16.6007 1.84648 17.84 0.1715 18.3083 0.228666C18.8703 0.297266 19.2089 1.2691 19.6845 1.31483C20.2249 1.36628 20.8085 0.703148 21.3056 0.726015C21.81 0.743165 22.2927 1.0976 22.8331 1.0976C23.3087 1.0976 23.8347 1.53778 24.3967 1.52063C24.8722 1.50348 25.3838 2.82403 25.953 2.80116C26.4573 2.77829 26.9905 2.82974 27.5093 2.80116C28.0136 2.77258 27.8551 3.13844 28.3739 3.10414C28.8783 3.06984 29.3538 2.80116 29.8654 2.76114C30.3697 2.72113 30.4562 2.40671 30.9678 2.36669C31.4721 2.32668 31.9981 2.40099 32.5097 2.36098C33.014 2.32096 33.4608 1.72071 33.9723 1.6807C34.4767 1.64068 35.0531 2.10944 35.5647 2.07515C36.0762 2.04085 36.6238 2.42386 37.1354 2.39528C37.6541 2.36669 38.1009 1.49205 38.6124 1.46918C39.1312 1.45203 39.6788 1.96081 40.1904 1.94938C40.7091 1.93795 41.2207 2.51533 41.7323 2.51533C42.251 2.51533 42.7698 1.9894 43.2742 2.00655C43.7929 2.02369 44.3621 1.53206 44.8665 1.56636C45.3853 1.60066 45.9473 1.52635 46.4516 1.58351C46.9632 1.64068 47.2802 2.61251 47.7774 2.69254C48.3322 2.78401 48.9014 2.79544 49.4418 2.86404C49.9966 2.93264 50.3424 2.21234 50.89 2.26951C51.4448 2.32668 51.9492 2.73256 52.4968 2.77258C53.0444 2.81259 53.6712 0.611682 54.226 0.640265C54.7736 0.668848 55.3068 0.743165 55.8616 0.760315C56.4092 0.771748 56.9352 1.33198 57.4972 1.33198C58.0015 1.33198 58.4987 1.05758 58.9958 1.05186C59.5002 1.04615 60.0045 1.21765 60.5017 1.2005C61.0061 1.18335 61.9067 1.21765 62.4039 1.18906C62.901 1.16048 63.5207 2.14946 64.0178 2.10944C64.515 2.06943 64.8464 0.948964 65.3436 0.897514C65.8335 0.846065 66.4171 1.29196 66.9143 1.22908C67.4043 1.1662 67.7789 0.634548 68.2761 0.560232C68.802 0.480199 69.4433 0.880365 69.9765 0.834631C70.5097 0.788898 71.0501 0.880365 71.5832 0.863215C72.1236 0.846065 72.6496 1.22336 73.1828 1.22336C73.716 1.22336 74.2708 0.525932 74.8039 0.537365Z" fill="white"/>
</svg>
