<svg width="198" height="51" viewBox="0 0 198 51" fill="none" xmlns="http://www.w3.org/2000/svg">
<path d="M2.43461 50.2198L0 44.3004C1.68672 43.7275 3.23023 43.0592 4.63053 42.2954C6.06266 41.5316 7.30383 40.6883 8.35406 39.7653C9.40428 38.8424 10.2158 37.8399 10.7887 36.7579C11.3615 35.644 11.6479 34.4506 11.6479 33.1776C11.6479 31.8409 11.3456 30.377 10.7409 28.7857C10.1362 27.1945 9.40428 25.5714 8.54501 23.9165L14.7986 20.909C15.3715 21.8956 15.8647 22.9617 16.2785 24.1074C16.724 25.2213 17.09 26.2238 17.3764 27.1149C17.6629 28.006 17.8538 28.6107 17.9493 28.9289C18.3948 30.4565 18.9995 31.4749 19.7633 31.9841C20.5589 32.4933 21.8319 32.7479 23.5823 32.7479C24.7917 32.7479 25.6509 33.0662 26.1601 33.7027C26.7012 34.3073 26.9717 35.0711 26.9717 35.9941C26.9717 36.9806 26.6375 37.8081 25.9692 38.4764C25.3009 39.1129 24.3461 39.4312 23.1049 39.4312C21.8001 39.4312 20.6544 39.2402 19.6678 38.8583C18.6813 38.4764 17.8856 37.9195 17.281 37.1875C16.7081 36.4555 16.3421 35.5963 16.183 34.6097L17.9493 35.6122C17.7583 37.2989 17.2014 38.8901 16.2785 40.3859C15.3874 41.9135 14.2258 43.3138 12.7936 44.5868C11.3615 45.8598 9.75436 46.9737 7.97216 47.9284C6.18996 48.8832 4.34411 49.647 2.43461 50.2198ZM26.981 39.4312L27.4584 32.7479C28.6677 32.7479 29.6225 32.6365 30.3226 32.4138C31.0546 32.191 31.6274 31.7454 32.0412 31.0771C32.4867 30.377 32.8527 29.3586 33.1391 28.0219C33.4574 26.6853 33.7756 24.9031 34.0939 22.6753L40.3475 23.7255C40.2838 24.2029 40.1884 24.7598 40.0611 25.3963C39.9656 26.0328 39.8701 26.6853 39.7746 27.3536C39.711 27.9901 39.6792 28.5948 39.6792 29.1676C39.6792 29.9314 39.8383 30.5838 40.1565 31.1248C40.5066 31.634 41.1113 32.0319 41.9706 32.3183C42.8617 32.6047 44.1347 32.7479 45.7896 32.7479C46.9989 32.7479 47.8582 33.0662 48.3674 33.7027C48.8766 34.3073 49.1312 35.0711 49.1312 35.9941C49.1312 36.9806 48.797 37.8081 48.1287 38.4764C47.4922 39.1129 46.5534 39.4312 45.3122 39.4312C43.1163 39.4312 41.3341 39.2243 39.9656 38.8106C38.5971 38.3969 37.5787 37.6967 36.9104 36.7101C36.2421 35.7236 35.8124 34.371 35.6215 32.6524H37.9129C37.34 34.18 36.6717 35.4053 35.9079 36.3282C35.1441 37.2193 34.2848 37.8877 33.3301 38.3332C32.3753 38.7788 31.3569 39.0652 30.2749 39.1925C29.2247 39.3516 28.1267 39.4312 26.981 39.4312ZM35.4783 50.4108C34.5553 50.4108 33.7597 50.0925 33.0914 49.456C32.4549 48.8195 32.1366 48.0398 32.1366 47.1169C32.1366 46.194 32.4549 45.3824 33.0914 44.6823C33.7597 44.014 34.5553 43.6798 35.4783 43.6798C36.4012 43.6798 37.1809 44.014 37.8174 44.6823C38.4857 45.3824 38.8199 46.194 38.8199 47.1169C38.8199 48.0398 38.4857 48.8195 37.8174 49.456C37.1809 50.0925 36.4012 50.4108 35.4783 50.4108ZM49.1211 39.4312L49.5985 32.7479C50.3941 32.7479 50.9988 32.5888 51.4125 32.2705C51.8263 31.9523 52.24 31.3954 52.6537 30.5997C53.0674 29.8041 53.6403 28.7221 54.3723 27.3536C55.1679 25.826 55.9953 24.553 56.8546 23.5346C57.7139 22.4844 58.5732 21.6569 59.4324 21.0522C60.3235 20.4157 61.1987 19.9702 62.058 19.7156C62.9491 19.4292 63.8243 19.2859 64.6836 19.2859C65.8611 19.2859 66.959 19.5405 67.9774 20.0497C69.0277 20.5271 70.0302 21.3705 70.9849 22.5798C71.9397 23.7574 72.8467 25.3804 73.7059 27.4491C74.3106 28.8812 74.9153 29.9791 75.52 30.7429C76.1246 31.5067 76.7452 32.0319 77.3817 32.3183C78.0501 32.6047 78.7184 32.7479 79.3867 32.7479C80.5961 32.7479 81.4553 33.0662 81.9645 33.7027C82.4737 34.3073 82.7283 35.0711 82.7283 35.9941C82.7283 36.9806 82.3942 37.8081 81.7258 38.4764C81.0575 39.1129 80.1187 39.4312 78.9093 39.4312C77.3499 39.4312 75.9337 39.1766 74.6607 38.6674C73.3877 38.1582 72.3852 37.3944 71.6532 36.376L73.0376 35.3257C72.7512 35.9941 72.3216 36.6942 71.7487 37.4262C71.2077 38.1582 70.4916 38.7788 69.6005 39.288C68.7412 39.7972 67.7069 40.0518 66.4976 40.0518C65.702 40.0518 64.7631 39.8926 63.6811 39.5744C62.6308 39.288 61.5329 38.7947 60.3872 38.0945C59.2733 37.3625 58.239 36.376 57.2842 35.1348C56.6796 36.2487 56.0112 37.1239 55.2793 37.7604C54.5473 38.365 53.688 38.7947 52.7014 39.0493C51.7149 39.3039 50.5214 39.4312 49.1211 39.4312ZM60.053 29.5018C60.3713 29.9791 60.7532 30.4565 61.1987 30.9339C61.6443 31.4113 62.1376 31.8409 62.6786 32.2228C63.2196 32.5729 63.7925 32.8593 64.3971 33.0821C65.0336 33.3049 65.6542 33.4162 66.2589 33.4162C66.8954 33.4162 67.4205 33.1776 67.8342 32.7002C68.248 32.191 68.2639 31.4431 67.882 30.4565C67.7228 30.0428 67.5001 29.5813 67.2136 29.0721C66.959 28.5311 66.6567 28.0219 66.3066 27.5445C65.9884 27.0672 65.6224 26.6693 65.2087 26.3511C64.8268 26.0328 64.429 25.8737 64.0152 25.8737C63.6015 25.8737 63.1719 26.001 62.7263 26.2556C62.2808 26.5102 61.8352 26.908 61.3897 27.4491C60.9441 27.9583 60.4986 28.6425 60.053 29.5018ZM82.7294 39.4312L83.2068 32.7957C85.8483 32.7957 87.9647 32.7797 89.5559 32.7479C91.179 32.7161 92.4361 32.6524 93.3272 32.557C94.2501 32.4297 94.9343 32.2865 95.3799 32.1273C95.8254 31.9364 96.2073 31.7295 96.5256 31.5067C96.9075 31.2203 97.2257 30.8384 97.4803 30.361C97.7668 29.8518 97.9895 29.1835 98.1487 28.3561C98.3078 27.5286 98.3873 26.4943 98.3873 25.2531C98.3873 23.6937 98.2441 22.3889 97.9577 21.3387C97.7031 20.2566 97.3212 19.4451 96.812 18.904C96.3346 18.363 95.7459 18.0925 95.0457 18.0925C94.5365 18.0925 94.0591 18.2675 93.6136 18.6176C93.168 18.9359 92.8021 19.3814 92.5156 19.9543C92.2292 20.5271 92.086 21.1795 92.086 21.9115C92.086 22.3252 92.1974 22.6912 92.4202 23.0095C92.6429 23.3277 92.993 23.5664 93.4704 23.7255C93.9478 23.8847 94.5524 23.9642 95.2844 23.9642C95.9846 23.9642 96.7165 23.8847 97.4803 23.7255C98.276 23.5346 99.0079 23.28 99.6763 22.9617L99.8672 28.6425C99.358 28.9926 98.7692 29.3108 98.1009 29.5972C97.4326 29.8837 96.7165 30.1064 95.9527 30.2656C95.2208 30.3929 94.4729 30.4565 93.7091 30.4565C92.0223 30.4565 90.5584 30.2337 89.3172 29.7882C88.1079 29.3108 87.169 28.547 86.5007 27.4968C85.8324 26.4466 85.4982 25.0144 85.4982 23.2004C85.4982 21.8001 85.7369 20.4157 86.2143 19.0473C86.6917 17.647 87.3759 16.3899 88.267 15.276C89.1581 14.1303 90.2083 13.2233 91.4177 12.555C92.627 11.8548 93.9637 11.5047 95.4276 11.5047C97.5917 11.5047 99.3739 12.1412 100.774 13.4142C102.206 14.6554 103.257 16.3421 103.925 18.4744C104.625 20.5749 104.975 22.914 104.975 25.4918C104.975 27.7514 104.641 29.7245 103.973 31.4113C103.304 33.0662 102.509 34.371 101.586 35.3257C100.822 36.1214 99.9468 36.7897 98.9602 37.3307C97.9736 37.8717 96.7643 38.3014 95.3321 38.6196C93.9318 38.9061 92.1974 39.1129 90.1288 39.2402C88.092 39.3675 85.6255 39.4312 82.7294 39.4312ZM95.3321 7.06515C94.3456 7.06515 93.5022 6.73099 92.8021 6.06267C92.1337 5.39434 91.7996 4.56689 91.7996 3.58032C91.7996 2.59374 92.1337 1.75038 92.8021 1.05023C93.5022 0.350075 94.3456 0 95.3321 0C96.2869 0 97.0984 0.350075 97.7668 1.05023C98.4669 1.75038 98.817 2.59374 98.817 3.58032C98.817 4.56689 98.4669 5.39434 97.7668 6.06267C97.0984 6.73099 96.2869 7.06515 95.3321 7.06515ZM113.371 50.1721L111.987 43.4889C114.247 43.2024 116.22 42.8524 117.906 42.4386C119.593 42.0567 121.009 41.5157 122.155 40.8156C123.301 40.1154 124.16 39.1607 124.733 37.9513C125.306 36.7101 125.592 35.1189 125.592 33.1776C125.592 31.2999 125.306 29.8041 124.733 28.6902C124.16 27.5764 123.396 27.0194 122.442 27.0194C121.773 27.0194 121.216 27.2581 120.771 27.7355C120.325 28.181 119.991 28.7221 119.768 29.3586C119.577 29.9632 119.482 30.5043 119.482 30.9816C119.482 31.2681 119.561 31.5704 119.721 31.8886C119.88 32.2069 120.23 32.4774 120.771 32.7002C121.312 32.923 122.155 33.0503 123.301 33.0821C124.478 33.1139 126.07 33.0025 128.075 32.7479H136.094C137.304 32.7479 138.163 33.0662 138.672 33.7027C139.213 34.3073 139.484 35.0711 139.484 35.9941C139.484 36.9806 139.15 37.8081 138.481 38.4764C137.813 39.1129 136.858 39.4312 135.617 39.4312H122.489C120.484 39.4312 118.766 39.1925 117.334 38.7151C115.902 38.2377 114.804 37.4739 114.04 36.4237C113.276 35.3417 112.894 33.9095 112.894 32.1273C112.894 30.6952 113.133 29.2631 113.61 27.831C114.119 26.3988 114.819 25.094 115.711 23.9165C116.602 22.7071 117.636 21.7524 118.814 21.0522C120.023 20.3203 121.328 19.9543 122.728 19.9543C124.637 19.9543 126.308 20.543 127.74 21.7206C129.173 22.8981 130.286 24.4575 131.082 26.3988C131.909 28.3402 132.323 30.4565 132.323 32.7479C132.323 36.3441 131.559 39.3993 130.032 41.9135C128.504 44.4277 126.324 46.369 123.492 47.7375C120.659 49.1378 117.286 49.9493 113.371 50.1721ZM139.504 39.4312L139.981 32.7479C141.381 32.7479 142.479 32.6524 143.275 32.4615C144.102 32.2705 144.691 31.9205 145.041 31.4113C145.391 30.8702 145.566 30.1064 145.566 29.1199C145.566 28.2288 145.439 27.1626 145.184 25.9215C144.962 24.6803 144.659 23.3914 144.277 22.0547C143.895 20.7181 143.514 19.4928 143.132 18.3789L149.719 16.5649C150.101 17.647 150.483 18.904 150.865 20.3362C151.247 21.7683 151.565 23.2482 151.82 24.7758C152.106 26.2715 152.25 27.7196 152.25 29.1199C152.25 30.8702 152.027 32.3501 151.581 33.5595C151.136 34.737 150.515 35.7236 149.719 36.5192C148.956 37.283 148.033 37.8877 146.951 38.3332C145.9 38.7469 144.739 39.0334 143.466 39.1925C142.193 39.3516 140.872 39.4312 139.504 39.4312ZM146.378 12.6027C145.391 12.6027 144.548 12.2685 143.848 11.6002C143.179 10.9319 142.845 10.1044 142.845 9.11787C142.845 8.13129 143.179 7.28793 143.848 6.58778C144.548 5.88763 145.391 5.53755 146.378 5.53755C147.333 5.53755 148.144 5.88763 148.812 6.58778C149.513 7.28793 149.863 8.13129 149.863 9.11787C149.863 10.1044 149.513 10.9319 148.812 11.6002C148.144 12.2685 147.333 12.6027 146.378 12.6027ZM195.841 31.6977L197.703 37.4262C196.334 38.1263 194.886 38.6515 193.359 39.0015C191.863 39.3198 190.224 39.4789 188.442 39.4789C185.832 39.4789 183.684 39.1766 181.997 38.5719C180.342 37.9354 179.101 37.0602 178.274 35.9463C177.478 34.8006 177.08 33.4958 177.08 32.0319C177.08 30.5043 177.478 29.0403 178.274 27.64C179.069 26.2079 180.167 24.9031 181.567 23.7255C180.804 23.3755 180.103 22.9299 179.467 22.3889C178.83 21.816 178.321 21.1477 177.939 20.3839C177.589 19.5883 177.414 18.6813 177.414 17.6629C177.414 16.2307 177.764 14.91 178.464 13.7007C179.165 12.4913 180.088 11.4093 181.233 10.4545C182.379 9.46794 183.636 8.62458 185.005 7.92443C186.373 7.22428 187.741 6.68325 189.11 6.30136L191.163 12.1253C189.985 12.539 188.935 12.9846 188.012 13.462C187.121 13.9075 186.357 14.369 185.721 14.8464C185.084 15.3237 184.607 15.817 184.288 16.3262C183.97 16.8036 183.811 17.281 183.811 17.7583C183.811 18.2039 183.986 18.5858 184.336 18.904C184.686 19.1905 185.148 19.3973 185.721 19.5246C186.293 19.6519 186.914 19.6997 187.582 19.6678C188.282 19.636 188.951 19.5087 189.587 19.2859L190.638 24.5848C189.205 25.4123 187.964 26.192 186.914 26.9239C185.896 27.6241 185.116 28.2924 184.575 28.9289C184.034 29.5654 183.763 30.2019 183.763 30.8384C183.763 31.3476 183.954 31.7773 184.336 32.1273C184.718 32.4456 185.275 32.6843 186.007 32.8434C186.771 33.0025 187.678 33.0821 188.728 33.0821C189.651 33.0821 190.574 33.0025 191.497 32.8434C192.452 32.6843 193.311 32.4933 194.075 32.2705C194.87 32.0478 195.459 31.8568 195.841 31.6977Z" fill="white"/>
</svg>
