<svg width="194" height="36" viewBox="0 0 194 36" fill="none" xmlns="http://www.w3.org/2000/svg">
<path d="M0 13.5907H34.3921V18.3097H0V13.5907ZM14.6101 0H19.5555V35.4491H14.6101V0ZM40.3568 14.8742H75.3152V19.8198H40.3568V14.8742ZM89.8875 1.77434H108.726V6.19134H89.8875V1.77434ZM89.9252 10.797H108.914V15.1008H89.9252V10.797ZM89.6987 19.7065H108.65V24.1235H89.6987V19.7065ZM86.754 1.77434H91.4353V14.2702C91.4353 15.9061 91.3346 17.6679 91.1333 19.5555C90.9571 21.4431 90.6173 23.3559 90.114 25.2938C89.6106 27.2317 88.8683 29.069 87.8867 30.8056C86.9052 32.5422 85.6089 34.09 83.9981 35.4491C83.7716 35.1219 83.4445 34.7444 83.0166 34.3165C82.6139 33.8887 82.1735 33.4734 81.6953 33.0707C81.2423 32.668 80.8396 32.366 80.4872 32.1647C81.9218 30.9566 83.0543 29.6227 83.8849 28.163C84.7406 26.678 85.3698 25.1428 85.7725 23.5572C86.2003 21.9716 86.4646 20.386 86.5653 18.8005C86.6911 17.2149 86.754 15.6922 86.754 14.2325V1.77434ZM106.611 1.77434H111.444V29.673C111.444 31.0321 111.255 32.0766 110.877 32.8064C110.525 33.5363 109.909 34.09 109.028 34.4675C108.122 34.8702 106.989 35.1093 105.63 35.1848C104.271 35.2855 102.61 35.3358 100.647 35.3358C100.546 34.8828 100.395 34.3669 100.194 33.788C99.9921 33.2091 99.7661 32.6303 99.5141 32.0514C99.2621 31.4725 99.0111 30.9818 98.7591 30.5791C99.6401 30.6294 100.533 30.6672 101.439 30.6923C102.371 30.6923 103.189 30.6923 103.893 30.6923C104.623 30.6923 105.139 30.6923 105.441 30.6923C105.869 30.6923 106.171 30.6168 106.347 30.4658C106.523 30.2896 106.611 30.0002 106.611 29.5975V1.77434ZM123.449 3.28444H155.387V34.0523H150.593V7.66364H128.017V34.3543H123.449V3.28444ZM125.865 27.5212H153.084V31.8626H125.865V27.5212ZM140.626 6.45564H145.043V16.9506C145.043 17.5295 145.081 17.8692 145.156 17.9699C145.282 18.0958 145.483 18.1587 145.76 18.1587C145.886 18.1587 146.05 18.1587 146.251 18.1587C146.452 18.1587 146.616 18.1587 146.742 18.1587C146.868 18.1587 146.994 18.1461 147.119 18.1209C147.27 18.0958 147.384 18.058 147.459 18.0077C147.535 17.9573 147.61 17.8818 147.686 17.7812C147.786 17.6553 147.849 17.4666 147.874 17.2149C147.925 16.9632 147.95 16.5731 147.95 16.0446C147.975 15.4909 148 14.8617 148.025 14.157C148.428 14.5093 148.957 14.8617 149.611 15.214C150.291 15.5664 150.92 15.8306 151.499 16.0068C151.448 16.7618 151.373 17.5169 151.272 18.2719C151.197 19.0018 151.083 19.5429 150.932 19.8953C150.756 20.2728 150.542 20.5874 150.291 20.8391C150.064 21.0656 149.762 21.2669 149.385 21.4431C149.082 21.5941 148.705 21.7074 148.252 21.7829C147.824 21.8332 147.421 21.8584 147.044 21.8584C146.817 21.8584 146.553 21.8584 146.251 21.8584C145.949 21.8584 145.647 21.8584 145.345 21.8584C145.068 21.8584 144.817 21.8584 144.59 21.8584C144.087 21.8584 143.571 21.7829 143.042 21.6319C142.514 21.4808 142.061 21.2418 141.683 20.9146C141.331 20.5874 141.066 20.1469 140.89 19.5932C140.714 19.0396 140.626 18.1209 140.626 16.8374V6.45564ZM133 6.38004H137.417C137.342 8.97244 137.128 11.3759 136.775 13.5907C136.423 15.8055 135.794 17.7937 134.888 19.5555C133.982 21.3173 132.61 22.8273 130.773 24.0857C130.521 23.5572 130.118 22.9658 129.565 22.3114C129.011 21.6319 128.482 21.0907 127.979 20.6881C129.464 19.7065 130.546 18.511 131.226 17.1016C131.905 15.667 132.358 14.0563 132.585 12.2694C132.811 10.4573 132.95 8.49424 133 6.38004ZM167.052 2.26512H193.403V34.9206H188.533V6.83314H171.696V34.9961H167.052V2.26512ZM170.224 14.9498H190.534V19.4045H170.224V14.9498ZM170.224 27.9364H190.572V32.5044H170.224V27.9364Z" fill="white"/>
</svg>
