<svg xmlns="http://www.w3.org/2000/svg" width="272" height="31" fill="none"><path fill="#fff" d="M73.2.54c1.53 0 4.42 1.32 4.42 3.1 0 .24-.04.49-.17.82-.5 1.32-5.98 11.72-7.35 16.1 2.81-2.69 13.96-17.18 17.34-19.03a6.97 6.97 0 0 1 3.18-.91c.87 0 1.36.29 1.36.74 0 .25-.16.58-.54.95-12 11.02-19.15 22.5-22.45 27.66-.41.7-.79 1.03-1.28 1.03-.12 0-.29-.04-.45-.08-2.48-.66-5.95-2.07-5.95-5.2 0-.13 0-.25.04-.37.58-2.56 8.18-17.96 10.32-23.82.17-.5.58-1 1.53-1Zm145.9.2c1.94 0 3.75 2.6 3.92 4.3 1.57-1 4.87-2.9 7.14-2.9 2.47 0 2.72 2.15 3.71 3.8.3.46.42 1.08.42 1.74 0 6.23-9.58 11.72-15.28 11.72h-.7c.09 2.19 1.53 6.2 7.3 8.71.46.2.67.54.67.87 0 1.03-1.16 1.65-2.02 1.65-1.86 0-10.2-2.35-12.63-11.19-1.74 2.6-5.87 9.54-6.61 10.78-.37.57-.78.78-1.2.78-1.32 0-2.8-2.44-2.8-3.6 0-.49.16-1.06.57-1.8 2.11-3.56 16.26-23.78 16.76-24.49a.83.83 0 0 1 .75-.37ZM107.53.16c1.61 0 2.31.21 4 1.37.5.33.7.82.7 1.24 0 .28-.12.57-.4.61-1.16.38-6.45 1.16-10.78 1.86a201.9 201.9 0 0 0-6.85 9.41c3.3-.5 7.8-.95 8.83-.95.83 0 2.27 1.12 2.77 1.74.04.08.12.2.12.37 0 .33-.29.74-1.11.74-1.08 0-9 .75-14.29 3.68-1.2 1.85-2.27 3.67-3.17 5.28 3.3-.74 8.25-1.45 9.4-1.45 1.37 0 3.68.7 3.68 2.44v.08c-.04.79-8 1.74-14.4 4.34-.09.04-.21.04-.38.04-.7 0-1.77-.5-2.72-1.16a4.05 4.05 0 0 1-1.7-3.26c0-.45.09-.95.3-1.44.74-2.1 10.23-17.3 12.75-20.97-.2-.58-.33-1.2-.33-1.65 0-.42.08-.75.29-.83.95-.41 10.82-1.44 12.59-1.49h.7Zm96.62 0c1.61 0 2.32.21 4 1.37.5.33.71.82.71 1.24 0 .28-.12.57-.41.61-1.16.38-6.44 1.16-10.78 1.86a202.08 202.08 0 0 0-6.85 9.41c3.3-.5 7.8-.95 8.84-.95.82 0 2.27 1.12 2.76 1.74.04.08.12.2.12.37 0 .33-.28.74-1.11.74-1.07 0-9 .75-14.28 3.68a105.4 105.4 0 0 0-3.18 5.28 71.8 71.8 0 0 1 9.41-1.45c1.36 0 3.67.7 3.67 2.44v.08c-.04.79-8 1.74-14.4 4.34-.09.04-.2.04-.37.04-.7 0-1.78-.5-2.73-1.16a4.05 4.05 0 0 1-1.69-3.26c0-.45.08-.95.29-1.44.74-2.1 10.24-17.3 12.75-20.97-.2-.58-.33-1.2-.33-1.65 0-.42.09-.75.3-.83.94-.41 10.8-1.44 12.58-1.49h.7ZM52.42 0c.5 0 .95.12 1.4.33 1.7.9 1.65 2.02 3.22 3.67 1.82 1.86 3.43 1.99 3.43 5.41 0 6.77-9.04 21.22-17.17 21.22-.95 0-1.78-.25-2.36-.74-2.8-2.6-3.88-2.85-4.95-5a5.06 5.06 0 0 1-.37-2.02C35.62 15.69 46.35 0 52.42 0Zm116.45 0c4.29 0 6.52.66 8.54 4.62.58 1.04 1.7 2.48 1.7 3.72 0 2.64-3.6 5.74-8.18 7.6a8.34 8.34 0 0 1 2.52 5.81c0 6.11-7.27 8.88-12.34 8.88-1.9 0-6.24-.83-8.38-4.42-.13.2-.25.46-.38.66-.45.87-1.03 1.2-1.56 1.2-1.32 0-2.69-1.9-2.69-3.92 0-.58.13-1.2.42-1.78.86-1.7 8.75-11.6 12.92-16.67-2.4.7-4.42 1.48-5.45 2.18-.42.3-.87.42-1.24.42-1.61 0-2.15-2.07-2.15-3.35 0-.7.25-1.15.87-1.4 1.4-.62 8.88-3.55 15.4-3.55Zm-46.2.7c.67 0 1.5.91 2.61 1.65 1.32.83 3.38 1.2 3.38 3.39 0 .37-.04.78-.16 1.24-.74 2.8-3.22 9.74-3.67 12.63-.05.29-.09.78.33.78.24 0 .57-.12 1.11-.5C130 17.3 142.2 4.6 144.68 2.2c.41-.37.78-.54 1.28-.54.58 0 1.28.25 2.31.83 1.7.99 2.19 1.44 2.77 3.42.12.42.16.7.16.91 0 .45-.24.58-.74 1.24-6.44 8.59-13.17 20.43-13.66 21.26-.54.86-1.2 1.2-1.82 1.2-1.44 0-3.47-2.2-3.47-3.64 0-.29.04-.53.2-.82 1.33-2.6 5.17-9.7 6.9-12.72-2.76 2.56-10.28 11.64-13.78 11.64-2.98 0-4.5-2.56-4.5-5.2 0-1.65.24-4.17.45-5.94-2.72 4.04-9.04 14.12-10.15 15.64-.5.66-1.24 1-1.98 1-1.57 0-3.43-1.53-3.43-3.14 0-.5.16-.91.5-1.28.65-.79 15.4-23.08 16.26-24.77.2-.41.45-.58.7-.58ZM36.09.3c1.4 0 4.09 1.24 4.09 2.93 0 .54-.29 1.11-1 1.77C35.1 8.96 26.3 21.92 21.85 28.61c-.87 1.28-1.77 1.85-2.72 1.85-.7 0-1.45-.37-2.23-.95-.91-.74-3.14-.99-3.1-3.46.04-4.05 1.94-10.86 2.9-14.95A681.3 681.3 0 0 0 4.54 29.43c-.33.58-.91.83-1.57.83C1.6 30.26 0 29.14 0 27.49c0-.41.13-.87.33-1.36.42-.78 15.36-22.66 16.02-23.7.29-.4.7-.61 1.24-.61.62 0 1.36.28 2.15.62 1.15.53 2.22.24 3.38 1.2.54.49 1.24.94 1.24 1.68 0 .13 0 .25-.04.42-.91 2.72-3.84 8.25-4.58 16.88C22.25 19.2 34.06 1.82 34.64.91c.24-.46.78-.62 1.44-.62ZM265.8 1.6c.66 0 1.57.29 3.14.37 2.15.08 3.06 1.32 3.06 2.44 0 .45-.17.95-.5 1.28-2.19 2.35-5.24 8.09-7.68 13.33.87-.04 1.65-.08 2.31-.08 1.4 0 4.13.41 4.13 2.27 0 .5-.41.9-1.15.9-.3 0-.54-.04-.83-.04-1.11 0-3.5.33-6.15.75a40.35 40.35 0 0 0-2.35 6.4c-.09.66-.75.94-1.57.94-1.49 0-3.55-.95-3.55-2.14 0-.08 0-.2.04-.3.08-.32.83-1.85 1.9-3.95-3.01.53-5.5 1.03-5.74 1.07-.41.08-.7.12-.95.12-.78 0-1.11-.33-1.9-1.2-.74-.9-1.11-1.69-1.11-2.43 0-.54.16-1.03.5-1.57.66-1.03 16.67-16.71 17.25-17.54.33-.5.7-.62 1.15-.62ZM54.15 6.31c-3.8 0-13.7 12.35-13.7 18.04 0 1.16.54 2.52 1.94 2.52 4.3 0 13.46-14.36 13.46-18.28 0-1.04-.5-2.27-1.7-2.27Zm111 11.27c-2.06 0-4.75.5-7.64 1.61a139.37 139.37 0 0 0-3.17 4.42c.95 1.36 3.46 2.02 6.23 2.02 4.33 0 9.16-1.73 9.16-5.36 0-2.4-2.72-2.69-4.58-2.69Zm98.3-8.33c-3.22 2.43-8.58 8.3-10.65 10.98 1.7-.21 3.8-.46 5.95-.7 1.81-3.64 3.75-7.64 4.7-10.28Zm-34.57-3.97c-4.05 0-10.61 5.74-12.47 9.25a1.1 1.1 0 0 0-.12.5c0 .45.37.78 1.2.78 3.1 0 12.34-6.44 12.34-9.54 0-.66-.46-.99-.95-.99Zm-58.03-1.15c-.87 0-1.82.08-2.77.2.33.33.54.62.54.95 0 .3-.17.58-.5.87-.41.37-2.89 3.26-5.82 6.9 3.8-.09 12.96-3.51 12.96-6.73 0-2.03-3.05-2.2-4.41-2.2Z"/></svg>