<svg width="179" height="37" viewBox="0 0 179 37" fill="none" xmlns="http://www.w3.org/2000/svg">
<path d="M21.4225 30.7406V19.5728L21.6098 16.4824L21.4225 11.6126V3.41822H28.2355V30.7406H21.4225ZM0.3746 6.01701L0 0.77261H27.3926L27.7438 6.01701H0.3746ZM3.90988 24.2085C3.76941 23.5374 3.66795 22.835 3.60552 22.1014C3.5587 21.3678 3.53528 20.6342 3.53528 19.9006C3.53528 16.8258 4.3157 14.4611 5.87653 12.8066C7.43737 11.1365 9.70838 10.3015 12.6896 10.3015C14.3285 10.3015 15.7176 10.5512 16.857 11.0507C18.012 11.5345 18.9563 12.1823 19.6899 12.9939C20.4235 13.8056 20.9698 14.6952 21.3288 15.6629H21.9844L21.5161 23.2486C20.923 21.797 20.2518 20.5796 19.5026 19.5963C18.7534 18.5973 17.9418 17.8481 17.0677 17.3487C16.1937 16.8336 15.2728 16.576 14.3051 16.576C13.0408 16.576 12.0887 16.9194 11.4487 17.6062C10.8088 18.293 10.4888 19.3387 10.4888 20.7435C10.4888 21.3678 10.52 21.9687 10.5825 22.5462C10.6449 23.1081 10.7229 23.6622 10.8166 24.2085H3.90988ZM25.4728 3.39481H28.2355V13.4154H25.4728V3.39481ZM25.4728 6.01701V0.77261H32.0283L32.3795 6.01701H25.4728ZM47.2845 5.57221C45.7861 6.02481 44.514 6.72721 43.4682 7.67931C42.4225 8.63141 41.6265 9.82541 41.0802 11.2614C40.5339 12.6974 40.2607 14.3753 40.2607 16.2951V18.332C40.2607 20.0177 40.4871 21.399 40.9397 22.476C41.3923 23.553 42.0479 24.3802 42.9063 24.9577C43.7648 25.5196 44.8028 25.902 46.0202 26.1049L46.7226 26.1986L45.9968 31.9112L44.9901 31.8176C42.5396 31.5991 40.448 30.8967 38.7155 29.7104C36.9986 28.5242 35.6875 26.9712 34.7822 25.0514C33.8925 23.1315 33.4477 20.9854 33.4477 18.6129V16.6463C33.4477 14.1646 33.8145 12.0262 34.5481 10.2313C35.2817 8.42071 36.3821 6.91451 37.8492 5.71261C39.332 4.51081 41.1816 3.57431 43.398 2.90315L47.2845 5.57221ZM29.608 6.04041L29.2569 0.77261H50.6559L51.0071 6.04041H29.608ZM65.4764 30.6704C60.31 30.6704 56.3533 29.4763 53.6062 27.0883C50.8592 24.6846 49.353 21.1493 49.0876 16.4824L48.6896 9.83321H55.3622L55.807 16.1546C55.9943 19.1202 56.8606 21.3054 58.4058 22.7101C59.951 24.0993 62.2454 24.7938 65.2891 24.7938C66.9279 24.7938 68.3249 24.5675 69.4799 24.1149C70.6349 23.6622 71.5246 22.9833 72.1489 22.078C72.7733 21.1571 73.0854 20.0099 73.0854 18.6363C73.0854 17.7935 73.0464 17.0053 72.9684 16.2717C72.9059 15.5225 72.8123 14.7811 72.6874 14.0475L76.1056 12.9705C75.6218 14.5626 74.9506 15.8893 74.0922 16.9506C73.2493 18.012 72.2114 18.8158 70.9783 19.3621C69.7608 19.8928 68.3405 20.1582 66.7172 20.1582C64.2043 20.1582 62.2923 19.5338 60.9812 18.2852C59.6857 17.0365 59.0379 15.2727 59.0379 12.9939V12.5959C59.0379 10.1922 59.7793 8.37391 61.2621 7.14081C62.7605 5.89211 64.891 5.26781 67.6537 5.26781C67.9503 5.26781 68.239 5.28341 68.52 5.31461C68.8009 5.33021 69.0663 5.36931 69.316 5.43171L69.9481 10.7229C69.6984 10.6761 69.4331 10.6449 69.1521 10.6293C68.8712 10.6137 68.6058 10.6059 68.3561 10.6059C67.5132 10.6059 66.8655 10.7775 66.4129 11.1209C65.9758 11.4487 65.7573 11.9638 65.7573 12.6662V12.83C65.7573 13.4856 65.9368 13.9773 66.2958 14.305C66.6548 14.6172 67.2089 14.7733 67.9581 14.7733C68.8634 14.7733 69.6516 14.5548 70.3227 14.1177C71.0095 13.6651 71.6026 13.0798 72.1021 12.3618C72.6172 11.6282 73.062 10.8244 73.4366 9.95031L79.1727 10.6059C79.4692 12.432 79.6643 13.9538 79.758 15.1713C79.8672 16.3731 79.9219 17.575 79.9219 18.7768C79.9219 21.3366 79.36 23.5061 78.2362 25.2855C77.128 27.0492 75.4969 28.3915 73.343 29.3124C71.2046 30.2177 68.5824 30.6704 65.4764 30.6704ZM45.6694 6.01701L45.2948 0.77261H83.1294L83.504 6.01701H45.6694ZM84.1237 19.0344C84.1237 18.6129 84.1237 18.1915 84.1237 17.7701C84.1237 17.3487 84.1237 16.9272 84.1237 16.5058C84.1237 13.8524 84.8417 11.8545 86.2776 10.5122C87.7292 9.16991 89.7505 8.49871 92.3415 8.49871C93.1687 8.49871 93.9257 8.59241 94.6125 8.77971C95.2992 8.95141 96.0172 9.21671 96.7664 9.57571C97.5156 9.93471 98.3897 10.3951 99.3886 10.957C100.107 11.3472 100.7 11.675 101.168 11.9404C101.636 12.1901 102.05 12.3696 102.409 12.4789C102.768 12.5881 103.135 12.6427 103.509 12.6427C104.305 12.6427 104.914 12.432 105.336 12.0106C105.757 11.5892 105.968 10.9258 105.968 10.0205V9.83321C105.968 8.91231 105.78 8.17101 105.406 7.60911C105.031 7.03151 104.508 6.61011 103.837 6.34481C103.166 6.07941 102.378 5.94681 101.472 5.94681L107.162 4.51861C109.035 4.84641 110.455 5.59561 111.423 6.76621C112.39 7.93681 112.874 9.34161 112.874 10.9805V11.2614C112.874 13.6027 112.164 15.382 110.744 16.5995C109.323 17.8169 107.333 18.4256 104.774 18.4256C103.775 18.4256 102.901 18.3398 102.151 18.1681C101.418 17.9964 100.731 17.7623 100.091 17.4657C99.4511 17.1535 98.7643 16.7946 98.0307 16.3887C97.2191 15.9205 96.5557 15.5303 96.0406 15.2181C95.5256 14.9059 95.0729 14.6718 94.6827 14.5157C94.3081 14.344 93.8945 14.2582 93.4419 14.2582C92.5834 14.2582 91.9278 14.4923 91.4752 14.9606C91.0382 15.4132 90.8197 16.0766 90.8197 16.9506C90.8197 17.2784 90.8197 17.614 90.8197 17.9574C90.8197 18.3008 90.8197 18.6598 90.8197 19.0344H84.1237ZM87.659 10.4186V9.29471C86.3947 9.13871 85.4582 8.71721 84.8495 8.03051C84.2564 7.32811 83.9598 6.50091 83.9598 5.54871V3.72259H92.0137V6.43841C92.0137 7.10961 92.1308 7.67931 92.3649 8.14751C92.6146 8.61581 92.9814 9.00601 93.4653 9.31821L87.659 10.4186ZM79.1836 6.01701L78.8325 0.77261H115.66L116.035 6.01701H79.1836ZM104.048 34.6739L88.9701 29.687V21.8204C91.764 20.7122 94.7608 19.6275 97.9605 18.5661C101.16 17.5047 104.407 16.5448 107.7 15.6864V21.7736C105.468 22.2106 103.221 22.7413 100.957 23.3657C98.7097 23.99 96.4699 24.7392 94.2379 25.6133L95.5022 23.7169V28.0482L94.1442 25.941L104.165 29.3359L103.814 30.2489L103.463 25.5664V16.9272L109.901 16.4121V34.6739H104.048ZM114.281 6.01701L113.906 0.77261H140.666V6.01701H114.281ZM134.813 30.8108L117.067 23.3891V13.0876C120.095 11.8545 123.318 10.7073 126.736 9.64591C130.17 8.56901 133.65 7.67931 137.178 6.97691L138.161 12.9237C136.241 13.2671 134.306 13.6885 132.355 14.188C130.404 14.6718 128.484 15.2337 126.596 15.8737C124.723 16.498 122.943 17.2004 121.257 17.9808L123.88 14.586V22.8038L121.257 19.1046L134.603 24.7002L134.205 26.3625L133.877 20.9074V10.9336L133.994 9.27131V4.82301H140.666V30.8108H134.813ZM137.904 3.39481H140.666V13.4154H137.904V3.39481ZM137.904 6.01701V0.77261H144.459L144.834 6.01701H137.904ZM124.231 36.4064C123.029 36.4064 122.116 36.0786 121.492 35.4231C120.867 34.7832 120.555 33.9091 120.555 32.8009V32.637C120.555 31.5132 120.867 30.6235 121.492 29.968C122.116 29.3124 123.029 28.9847 124.231 28.9847C125.464 28.9847 126.385 29.3124 126.994 29.968C127.602 30.6235 127.907 31.5132 127.907 32.637V32.8009C127.907 33.9091 127.594 34.7832 126.97 35.4231C126.361 36.0786 125.448 36.4064 124.231 36.4064ZM166.006 12.5725C167.208 12.5725 168.207 12.4398 169.003 12.1745C169.799 11.9091 170.392 11.5111 170.782 10.9805C171.188 10.4498 171.391 9.80201 171.391 9.03721V8.77971C171.391 7.65591 170.938 6.77401 170.033 6.13411C169.143 5.47851 167.801 5.15071 166.006 5.15071C164.149 5.15071 162.791 5.46291 161.932 6.08721C161.074 6.71161 160.645 7.60911 160.645 8.77971V9.03721C160.645 9.78641 160.832 10.4264 161.207 10.957C161.581 11.4877 162.166 11.8935 162.962 12.1745C163.758 12.4398 164.773 12.5725 166.006 12.5725ZM164.344 16.576H159.287V13.7431H164.344L162.962 15.382C159.872 15.382 157.539 14.7967 155.962 13.6261C154.386 12.4398 153.597 10.7775 153.597 8.63921V8.14751C153.597 5.44731 154.628 3.41822 156.688 2.0603C158.764 0.68676 161.792 0 165.772 0C169.924 0 173.069 0.68676 175.207 2.0603C177.361 3.43383 178.438 5.47071 178.438 8.17101V8.63921C178.438 10.7775 177.642 12.4398 176.05 13.6261C174.458 14.7967 172.109 15.382 169.003 15.382L167.692 13.7431H172.749V16.576H167.692L169.003 14.7499C172.203 14.7499 174.637 15.3664 176.308 16.5995C177.978 17.8169 178.813 19.6197 178.813 22.0077V22.5228C178.813 25.2543 177.72 27.338 175.535 28.7739C173.35 30.1943 170.158 30.9045 165.959 30.9045C161.807 30.9045 158.639 30.2021 156.454 28.7974C154.284 27.377 153.199 25.3167 153.199 22.6165V22.1248C153.199 19.6899 154.027 17.8559 155.681 16.6229C157.336 15.3742 159.763 14.7499 162.962 14.7499L164.344 16.576ZM166.006 25.6601C167.895 25.6601 169.307 25.3245 170.244 24.6533C171.196 23.9666 171.672 23.0067 171.672 21.7736V21.399C171.672 20.5874 171.469 19.8928 171.063 19.3153C170.657 18.7222 170.033 18.2695 169.19 17.9574C168.363 17.6452 167.302 17.4891 166.006 17.4891C164.679 17.4891 163.595 17.6452 162.752 17.9574C161.924 18.2695 161.308 18.7222 160.902 19.3153C160.512 19.8928 160.317 20.5874 160.317 21.399V21.7736C160.317 23.0067 160.785 23.9666 161.722 24.6533C162.658 25.3245 164.086 25.6601 166.006 25.6601Z" fill="white"/>
</svg>
