<svg width="120" height="55" viewBox="0 0 120 55" fill="none" xmlns="http://www.w3.org/2000/svg">
<path d="M1.02821 54.8071L-0.00012207 53.7078C3.52223 50.6582 7.02096 46.1312 10.496 40.1266C13.9711 34.1221 16.666 30.2924 18.5809 28.6376C20.4721 26.9828 22.5997 26.1554 24.9637 26.1554C25.2946 26.1554 25.6138 26.3681 25.9211 26.7937C26.2284 27.1955 26.3821 27.9047 26.3821 28.9213C26.3821 29.8432 26.122 30.6943 25.602 31.4744C25.0819 32.2309 24.42 32.8337 23.6162 33.2828C22.8124 33.732 21.9969 33.9566 21.1695 33.9566C19.7274 33.9566 18.4745 34.3703 17.4107 35.1977C16.3233 36.0487 14.1838 38.8264 10.9924 43.5308C7.82471 48.2351 4.50329 51.9939 1.02821 54.8071ZM24.9617 50.1194C24.3707 49.5284 23.8979 49.0674 23.5433 48.7364C23.1887 48.4291 22.8814 48.1572 22.6214 47.9208C22.3613 47.7081 22.054 47.4835 21.6994 47.2471V46.8925C21.8649 46.6325 22.1013 46.3133 22.4086 45.9351C22.7159 45.5568 23.0587 45.1668 23.437 44.7649C23.7916 44.3867 24.1225 44.0439 24.4298 43.7366C24.7372 43.4292 24.9617 43.2283 25.1036 43.1337H25.4582C26.4274 43.7484 27.1721 44.3039 27.6922 44.8004C28.2359 45.2968 28.5077 45.8287 28.5077 46.3961C28.5077 46.9871 28.165 47.6135 27.4794 48.2754C26.8175 48.9374 26.0728 49.552 25.2454 50.1194H24.9617ZM30.5918 33.4174C29.9536 33.4174 29.2798 33.3701 28.5706 33.2756C27.8851 33.2047 27.3059 33.1692 26.8331 33.1692C26.4548 33.1692 26.1239 32.9446 25.8402 32.4955C25.5565 32.0227 25.4147 31.3253 25.4147 30.4033C25.4147 29.4577 25.6747 28.6067 26.1948 27.8502C26.7149 27.0937 27.3768 26.4909 28.1806 26.0417C28.9843 25.5926 29.7999 25.368 30.6273 25.368C31.3129 25.368 31.9511 25.4153 32.5421 25.5098C33.1331 25.5808 33.7478 25.6162 34.3861 25.6162C34.717 25.6162 35.0362 25.829 35.3435 26.2545C35.6508 26.6564 35.8045 27.3656 35.8045 28.3821C35.8045 29.3041 35.5444 30.1551 35.0243 30.9352C34.5043 31.6917 33.8423 32.2945 33.0386 32.7437C32.2348 33.1928 31.4192 33.4174 30.5918 33.4174ZM33.4444 34.1692C32.9244 34.1692 32.5579 33.8737 32.3452 33.2827C32.1324 32.6917 32.026 32.0652 32.026 31.4033C32.026 30.4577 32.2861 29.6067 32.8062 28.8502C33.3262 28.0937 33.9882 27.4909 34.7919 27.0417C35.5957 26.5926 36.4113 26.368 37.2387 26.368C39.2481 26.368 40.7256 25.907 41.6712 24.9851C42.144 24.5123 42.6286 23.9685 43.125 23.3539C43.6451 22.7156 44.177 21.9946 44.7207 21.1908C45.8318 19.5833 46.9429 18.6614 48.054 18.425C48.314 17.8812 48.7159 17.243 49.2596 16.5101C49.827 15.7773 50.3707 15.1508 50.8908 14.6307H51.4936C51.9191 15.8837 52.5101 16.9947 53.2666 17.964C54.0231 18.9332 54.4013 19.7724 54.4013 20.4816C54.4013 21.0017 54.2595 21.5809 53.9758 22.2192C53.6921 22.8575 53.3257 23.4721 52.8765 24.0631C52.4274 24.6541 51.9309 25.1387 51.3872 25.517C50.8435 25.8952 50.3116 26.0843 49.7915 26.0843C49.2241 26.0843 48.4913 25.8479 47.593 25.3751C46.7183 24.926 46.0091 24.7014 45.4654 24.7014C44.3779 24.7014 43.1014 25.8361 41.6357 28.1055C40.9029 29.2639 40.1937 30.2331 39.5081 31.0133C38.8462 31.7934 38.2197 32.408 37.6287 32.8572C36.4467 33.7319 35.052 34.1692 33.4444 34.1692ZM60.1209 42.6797L59.8372 41.7932C60.901 41.2495 62.0357 40.6112 63.2414 39.8784C64.4706 39.1692 65.7708 38.3418 67.142 37.3962C68.4894 36.4506 69.5533 35.5286 70.3335 34.6303C71.1136 33.732 71.5981 32.8337 71.7872 31.9354C71.2908 32.1008 70.7825 32.219 70.2624 32.29C69.7424 32.3372 69.175 32.3609 68.5604 32.3609C67.9221 32.3609 67.3074 32.2309 66.7164 31.9708C66.1254 31.6871 65.6408 31.2853 65.2626 30.7652C64.8843 30.2451 64.6952 29.6423 64.6952 28.9567C64.6952 28.5312 64.7661 28.0348 64.908 27.4674C65.0498 26.9 65.2744 26.2854 65.5817 25.6235L67.0001 22.7512C67.7093 21.3092 68.7377 20.5882 70.0851 20.5882C71.1253 20.5882 71.9527 20.9546 72.5673 21.6874C73.2056 22.4203 73.6548 23.3659 73.9148 24.5242C74.1985 25.6589 74.3403 26.8646 74.3403 28.1411C74.3403 29.3704 74.1749 30.5879 73.8439 31.7935C73.5366 32.9992 73.1465 34.1102 72.6737 35.1268C72.2246 36.1196 71.7754 36.9589 71.3262 37.6444C70.9007 38.33 70.5579 38.7673 70.2979 38.9564C69.9906 39.1928 69.4114 39.4883 68.5604 39.8429C67.733 40.2212 66.7874 40.5994 65.7236 40.9777C64.6598 41.3559 63.6196 41.6987 62.6031 42.006C61.6102 42.3133 60.7828 42.5379 60.1209 42.6797ZM82.1576 6.98562C81.5193 6.37098 81.0347 5.91 80.7037 5.60268C80.3491 5.27172 80.0536 4.99986 79.8172 4.7871C79.5572 4.57434 79.2499 4.34976 78.8953 4.11336V3.75876C79.0608 3.49872 79.2972 3.17958 79.6045 2.80134C79.9118 2.4231 80.2546 2.04486 80.6328 1.66662C80.9874 1.26474 81.3184 0.91014 81.6257 0.60282C81.933 0.2955 82.1576 0.09456 82.2994 0H82.654C83.6233 0.61464 84.3679 1.17018 84.888 1.66662C85.4317 2.16306 85.7036 2.69496 85.7036 3.26232C85.7036 3.85332 85.3608 4.47978 84.6753 5.1417C84.0133 5.80362 83.2687 6.41826 82.4413 6.98562H82.1576ZM80.4594 31.1692C79.963 31.1692 79.6084 30.8619 79.3956 30.2472C79.1592 29.6326 79.041 28.9943 79.041 28.3324C79.041 27.3395 79.1828 26.5594 79.4665 25.992C79.7266 25.4247 80.0575 25.0228 80.4594 24.7864C80.8849 24.55 81.2868 24.4318 81.665 24.4318C82.7998 24.4318 83.5681 24.1718 83.9699 23.6517C84.3718 23.108 84.5728 22.0914 84.5728 20.6021V17.8008C84.5728 17.0916 84.6437 16.406 84.7855 15.7441C84.9274 15.0585 85.1874 14.3139 85.5656 13.5101C85.9439 12.6827 86.4758 11.7135 87.1613 10.6024L88.0478 10.8506C87.9533 11.2525 87.8351 11.9735 87.6932 13.0137C87.575 14.0302 87.4332 15.3659 87.2677 17.0207C87.1022 18.6755 86.8422 20.2948 86.4876 21.8787C86.133 23.4626 85.6602 25.0228 85.0692 26.5594C83.9108 29.6326 82.3742 31.1692 80.4594 31.1692ZM105.621 39.3465L104.699 39.311C104.746 39.1692 104.77 39.0392 104.77 38.921C104.77 38.7791 104.77 38.59 104.77 38.3536C104.77 37.5262 104.735 36.7697 104.664 36.0842C104.616 35.375 104.522 34.583 104.38 33.7084C104.238 32.8337 104.025 31.7344 103.742 30.4106C103.458 28.9449 103.222 27.7865 103.033 26.9355C102.867 26.0845 102.749 25.4107 102.678 24.9143C102.607 24.4178 102.572 23.9923 102.572 23.6377C102.572 22.6685 102.702 21.6756 102.962 20.6591C103.222 19.6426 103.612 18.697 104.132 17.8223C104.652 16.924 105.278 16.2029 106.011 15.6592C106.768 15.1155 107.619 14.8436 108.564 14.8436C109.344 14.8436 110.113 14.9973 110.869 15.3046C111.626 15.6119 112.323 16.1793 112.961 17.0067C113.623 17.8341 114.179 19.0161 114.628 20.5527H114.841C115.715 18.8506 116.496 17.5031 117.181 16.5103C117.867 15.4937 118.552 14.6427 119.238 13.9571L119.912 14.1344C119.793 14.7727 119.628 15.541 119.415 16.4393C119.202 17.3377 118.978 18.236 118.741 19.1343C118.505 20.0326 118.292 20.7891 118.103 21.4037C117.914 21.9947 117.784 22.3021 117.713 22.3257C117.406 22.6094 116.957 23.1176 116.366 23.8505C115.775 24.5597 115.172 25.3753 114.557 26.2972C113.942 27.2192 113.422 28.1411 112.997 29.0631H112.11C111.945 28.3775 111.673 27.6092 111.295 26.7582C110.94 25.8835 110.515 25.0443 110.018 24.2405C109.522 23.4131 108.99 22.7394 108.422 22.2193C107.855 21.6756 107.288 21.4037 106.72 21.4037C106.271 21.4037 105.952 21.5219 105.763 21.7583C105.574 21.9711 105.479 22.3139 105.479 22.7867C105.479 22.9522 105.538 23.3777 105.657 24.0632C105.798 24.7252 105.952 25.5407 106.118 26.51C106.283 27.4792 106.425 28.5312 106.543 29.6659C106.685 30.8006 106.756 31.9117 106.756 32.9992C106.756 34.0866 106.661 35.2095 106.472 36.3679C106.307 37.5026 106.023 38.4955 105.621 39.3465Z" fill="white"/>
</svg>
