<svg width="304" height="37" viewBox="0 0 304 37" fill="none" xmlns="http://www.w3.org/2000/svg">
<g clip-path="url(#clip0_184_6293)">
<path d="M29.5843 5.60721C29.5843 6.13379 29.3928 6.70824 29.0098 7.09121C26.4727 9.81985 22.9302 16.4739 20.1058 22.5535C21.1111 22.5057 22.0207 22.4578 22.7866 22.4578C24.4142 22.4578 27.5737 22.9365 27.5737 25.0907C27.5737 25.6652 27.095 26.1439 26.2333 26.1439C25.8982 26.1439 25.611 26.096 25.2759 26.096C23.9834 26.096 21.2069 26.479 18.1431 26.9577C16.6112 30.4523 15.6059 33.3245 15.4145 34.3777C15.3187 35.1436 14.5528 35.4787 13.5954 35.4787C11.872 35.4787 9.47846 34.3777 9.47846 32.9894C9.47846 32.8937 9.47846 32.7501 9.52633 32.6543C9.62207 32.2714 10.4837 30.5001 11.7284 28.0587C8.23381 28.681 5.36155 29.2555 5.07433 29.3034C4.59562 29.3991 4.26052 29.447 3.97329 29.447C3.06374 29.447 2.68078 29.064 1.77123 28.0587C0.909549 27.0055 0.47871 26.096 0.47871 25.2343C0.47871 24.612 0.670194 24.0375 1.05316 23.4152C1.8191 22.2184 20.393 4.02746 21.0632 3.07004C21.4462 2.49559 21.877 2.35198 22.4036 2.35198C23.1696 2.35198 24.2227 2.68708 26.0418 2.78282C28.5311 2.87856 29.5843 4.31469 29.5843 5.60721ZM19.675 11.2081C15.941 14.0325 9.71781 20.8302 7.32426 23.9418C9.28697 23.7024 11.7284 23.4152 14.2177 23.128C16.324 18.9153 18.5739 14.2719 19.675 11.2081ZM85.2474 4.21895C85.2474 4.84127 84.9123 5.51146 84.0985 6.2774C79.3593 10.873 69.1627 25.9045 63.9927 33.6596C62.9874 35.1436 61.9342 35.8138 60.8332 35.8138C60.0194 35.8138 59.1577 35.383 58.2482 34.7128C57.195 33.8511 54.61 33.5639 54.6578 30.6916C54.7057 26.0003 56.9078 18.1015 58.0088 13.3623C54.3227 18.6281 44.6049 33.4203 43.9347 34.617C43.5518 35.2872 42.8816 35.5745 42.1156 35.5745C40.5359 35.5745 38.6689 34.2819 38.6689 32.3671C38.6689 31.8884 38.8125 31.3618 39.0519 30.7874C39.5306 29.8778 56.8599 4.50617 57.6258 3.3094C57.9609 2.83069 58.4396 2.59133 59.062 2.59133C59.78 2.59133 60.6417 2.92643 61.5513 3.3094C62.8916 3.93172 64.1363 3.59662 65.4767 4.69766C66.099 5.27211 66.9128 5.79869 66.9128 6.66037C66.9128 6.80398 66.9128 6.94759 66.8649 7.13908C65.8118 10.2986 62.4129 16.7133 61.5513 26.7183C64.4714 22.745 78.1625 2.59133 78.8327 1.53817C79.1199 1.01159 79.7422 0.820105 80.5082 0.820105C82.1358 0.820105 85.2474 2.25624 85.2474 4.21895ZM107.355 11.3996C107.355 19.2504 96.8711 36.0053 87.4405 36.0053C86.3395 36.0053 85.382 35.7181 84.7118 35.1436C81.4566 32.1277 80.212 31.8405 78.9673 29.3512C78.6801 28.681 78.5365 27.9151 78.5365 27.0055C78.5365 18.676 90.9829 0.485009 98.02 0.485009C98.5944 0.485009 99.121 0.628621 99.6476 0.867975C101.61 1.92114 101.562 3.21366 103.382 5.1285C105.488 7.28269 107.355 7.4263 107.355 11.3996ZM101.993 10.4422C101.993 9.2454 101.419 7.80927 100.031 7.80927C95.6264 7.80927 84.1374 22.1227 84.1374 28.7289C84.1374 30.0693 84.7597 31.649 86.3873 31.649C91.3659 31.649 101.993 14.9899 101.993 10.4422ZM142.463 2.06475C142.463 2.35198 142.271 2.73495 141.84 3.16579C127.91 15.9473 119.628 29.2555 115.798 35.2394C115.32 36.0532 114.889 36.4361 114.314 36.4361C114.171 36.4361 113.979 36.3883 113.788 36.3404C110.916 35.5745 106.894 33.9468 106.894 30.3086C106.894 30.165 106.894 30.0214 106.942 29.8778C107.613 26.9098 116.421 9.05392 118.91 2.25624C119.102 1.68178 119.58 1.10733 120.681 1.10733C122.453 1.10733 125.803 2.6392 125.803 4.69766C125.803 4.98488 125.756 5.27211 125.612 5.65508C125.038 7.18695 118.671 19.2504 117.091 24.3248C120.346 21.2132 133.271 4.41043 137.197 2.25624C138.633 1.4903 139.925 1.20307 140.883 1.20307C141.888 1.20307 142.463 1.53817 142.463 2.06475ZM164.517 3.69236C164.517 4.02746 164.373 4.36256 164.038 4.41043C162.697 4.84127 156.57 5.75082 151.544 6.56462C149.964 8.57521 146.852 12.74 143.597 17.4792C147.427 16.9048 152.645 16.3782 153.841 16.3782C154.799 16.3782 156.474 17.6707 157.049 18.3888C157.097 18.4845 157.192 18.6281 157.192 18.8196C157.192 19.2026 156.857 19.6813 155.9 19.6813C154.655 19.6813 145.464 20.543 139.336 23.9418C137.948 26.096 136.703 28.2023 135.65 30.0693C139.48 29.2076 145.225 28.3938 146.565 28.3938C148.145 28.3938 150.825 29.2076 150.825 31.2182C150.825 31.2182 150.825 31.2661 150.825 31.3139C150.778 32.2235 141.538 33.3245 134.118 36.3404C134.023 36.3883 133.879 36.3883 133.688 36.3883C132.874 36.3883 131.629 35.8138 130.528 35.0479C129.523 34.3298 128.565 32.9894 128.565 31.2661C128.565 30.7395 128.661 30.165 128.901 29.5906C129.762 27.1492 140.773 9.53263 143.693 5.27211C143.453 4.60191 143.31 3.88385 143.31 3.35727C143.31 2.87856 143.405 2.49559 143.645 2.39985C144.746 1.92114 156.187 0.724364 158.245 0.676494C158.533 0.676494 158.82 0.676494 159.059 0.676494C160.926 0.676494 161.74 0.915849 163.703 2.25624C164.277 2.6392 164.517 3.21366 164.517 3.69236ZM208.27 8.38372C208.27 8.91031 207.982 9.05392 207.408 9.81985C199.94 19.777 192.137 33.516 191.563 34.4734C190.94 35.4787 190.174 35.8617 189.456 35.8617C187.781 35.8617 185.435 33.3245 185.435 31.649C185.435 31.3139 185.483 31.0267 185.674 30.6916C187.206 27.6757 191.658 19.4419 193.669 15.9473C190.461 18.9153 181.749 29.447 177.68 29.447C174.233 29.447 172.462 26.479 172.462 23.4152C172.462 21.5004 172.749 18.5802 172.989 16.5218C169.829 21.2132 162.505 32.8937 161.212 34.6649C160.638 35.4308 159.776 35.8138 158.915 35.8138C157.095 35.8138 154.941 34.0426 154.941 32.1756C154.941 31.6012 155.133 31.1224 155.516 30.6916C156.282 29.7821 173.372 3.93172 174.377 1.96901C174.616 1.4903 174.903 1.29881 175.191 1.29881C175.957 1.29881 176.914 2.35198 178.207 3.21366C179.738 4.17107 182.132 4.60191 182.132 7.13908C182.132 7.56992 182.084 8.04863 181.94 8.57521C181.079 11.8304 178.207 19.8728 177.68 23.2237C177.632 23.5588 177.584 24.1333 178.063 24.1333C178.35 24.1333 178.733 23.9897 179.355 23.5588C183.664 20.543 197.834 5.79869 200.706 3.02217C201.185 2.59133 201.615 2.39985 202.19 2.39985C202.86 2.39985 203.674 2.68708 204.871 3.35727C206.833 4.50617 207.408 5.03275 208.078 7.33056C208.222 7.80927 208.27 8.14437 208.27 8.38372ZM239.19 10.1549C239.19 13.2187 235.025 16.809 229.711 18.9632C231.53 20.7823 232.631 23.2237 232.631 25.713C232.631 32.7979 224.206 36.0053 218.318 36.0053C216.116 36.0053 211.089 35.0479 208.6 30.8831C208.457 31.1224 208.313 31.4097 208.169 31.649C207.643 32.6543 206.973 33.0373 206.35 33.0373C204.818 33.0373 203.239 30.8352 203.239 28.4895C203.239 27.8193 203.382 27.1013 203.717 26.4311C204.723 24.4684 213.866 12.9793 218.701 7.09121C215.924 7.90501 213.579 8.81456 212.382 9.62837C211.903 9.96347 211.377 10.1071 210.946 10.1071C209.079 10.1071 208.457 7.71353 208.457 6.22953C208.457 5.41572 208.744 4.88914 209.462 4.60191C211.089 3.88385 219.754 0.485009 227.318 0.485009C232.296 0.485009 234.881 1.25094 237.227 5.84656C237.897 7.04333 239.19 8.71882 239.19 10.1549ZM234.738 7.80927C234.738 5.46359 231.195 5.27211 229.615 5.27211C228.61 5.27211 227.509 5.36785 226.408 5.51146C226.791 5.89443 227.03 6.22953 227.03 6.6125C227.03 6.94759 226.839 7.28269 226.456 7.61779C225.977 8.04863 223.105 11.3996 219.706 15.6122C224.11 15.5165 234.738 11.5432 234.738 7.80927ZM228.323 23.9897C228.323 21.2132 225.163 20.8781 223.009 20.8781C220.616 20.8781 217.504 21.4525 214.153 22.745C212.813 24.5163 211.568 26.2875 210.467 27.8672C211.568 29.447 214.488 30.2129 217.696 30.2129C222.722 30.2129 228.323 28.2023 228.323 23.9897ZM272.501 9.38901C272.501 16.6175 261.395 22.9844 254.789 22.9844C254.502 22.9844 254.214 22.9844 253.975 22.9844C254.071 25.5215 255.746 30.165 262.448 33.0852C262.975 33.3245 263.214 33.7075 263.214 34.0905C263.214 35.2872 261.874 36.0053 260.869 36.0053C258.714 36.0053 249.044 33.2766 246.22 23.0323C244.209 26.0481 239.422 34.0905 238.561 35.5266C238.13 36.1968 237.651 36.4361 237.172 36.4361C235.64 36.4361 233.917 33.6117 233.917 32.2714C233.917 31.6969 234.109 31.0267 234.587 30.165C237.029 26.0481 253.449 2.59133 254.023 1.77753C254.214 1.4903 254.502 1.34669 254.885 1.34669C257.135 1.34669 259.241 4.36256 259.432 6.32527C261.251 5.17637 265.081 2.9743 267.714 2.9743C270.586 2.9743 270.874 5.46359 272.022 7.37843C272.358 7.90501 272.501 8.62308 272.501 9.38901ZM267.331 7.7614C267.331 6.99546 266.805 6.6125 266.23 6.6125C261.539 6.6125 253.927 13.2666 251.773 17.3356C251.677 17.5271 251.629 17.7186 251.629 17.9101C251.629 18.4366 252.06 18.8196 253.018 18.8196C256.608 18.8196 267.331 11.3517 267.331 7.7614ZM303.44 3.69236C303.44 4.02746 303.296 4.36256 302.961 4.41043C301.621 4.84127 295.493 5.75082 290.467 6.56462C288.887 8.57521 285.775 12.74 282.52 17.4792C286.35 16.9048 291.568 16.3782 292.764 16.3782C293.722 16.3782 295.397 17.6707 295.972 18.3888C296.02 18.4845 296.115 18.6281 296.115 18.8196C296.115 19.2026 295.78 19.6813 294.823 19.6813C293.578 19.6813 284.387 20.543 278.26 23.9418C276.871 26.096 275.627 28.2023 274.573 30.0693C278.403 29.2076 284.148 28.3938 285.488 28.3938C287.068 28.3938 289.749 29.2076 289.749 31.2182C289.749 31.2182 289.749 31.2661 289.749 31.3139C289.701 32.2235 280.462 33.3245 273.042 36.3404C272.946 36.3883 272.802 36.3883 272.611 36.3883C271.797 36.3883 270.552 35.8138 269.451 35.0479C268.446 34.3298 267.489 32.9894 267.489 31.2661C267.489 30.7395 267.584 30.165 267.824 29.5906C268.685 27.1492 279.696 9.53263 282.616 5.27211C282.376 4.60191 282.233 3.88385 282.233 3.35727C282.233 2.87856 282.329 2.49559 282.568 2.39985C283.669 1.92114 295.11 0.724364 297.169 0.676494C297.456 0.676494 297.743 0.676494 297.982 0.676494C299.849 0.676494 300.663 0.915849 302.626 2.25624C303.2 2.6392 303.44 3.21366 303.44 3.69236Z" fill="white"/>
</g>
<defs>
<clipPath id="clip0_184_6293">
<rect width="304" height="37" fill="white"/>
</clipPath>
</defs>
</svg>
