<svg width="247" height="37" viewBox="0 0 247 37" fill="none" xmlns="http://www.w3.org/2000/svg">
<path d="M29.1056 5.7924C29.1056 6.319 28.9141 6.8934 28.5311 7.2764C25.994 10.005 22.4515 16.6591 19.6271 22.7387C20.6324 22.6909 21.542 22.643 22.3079 22.643C23.9355 22.643 27.095 23.1217 27.095 25.2759C27.095 25.8504 26.6163 26.3291 25.7546 26.3291C25.4195 26.3291 25.1323 26.2812 24.7972 26.2812C23.5047 26.2812 20.7282 26.6642 17.6644 27.1429C16.1325 30.6375 15.1272 33.5097 14.9358 34.5629C14.84 35.3288 14.0741 35.6639 13.1167 35.6639C11.3933 35.6639 8.99975 34.5629 8.99975 33.1746C8.99975 33.0789 8.99975 32.9353 9.04762 32.8395C9.14336 32.4565 10.005 30.6853 11.2497 28.2439C7.7551 28.8662 4.88284 29.4407 4.59562 29.4885C4.11691 29.5843 3.78181 29.6322 3.49458 29.6322C2.58503 29.6322 2.20207 29.2492 1.29252 28.2439C0.430839 27.1907 0 26.2812 0 25.4195C0 24.7972 0.191484 24.2227 0.57445 23.6004C1.34039 22.4036 19.9143 4.2127 20.5845 3.2552C20.9675 2.6808 21.3983 2.5372 21.9249 2.5372C22.6909 2.5372 23.744 2.8723 25.5631 2.968C28.0524 3.0638 29.1056 4.4999 29.1056 5.7924ZM19.1963 11.3933C15.4623 14.2177 9.2391 21.0154 6.84555 24.127C8.80826 23.8876 11.2497 23.6004 13.739 23.3132C15.8453 19.1005 18.0952 14.4571 19.1963 11.3933ZM84.7687 4.4041C84.7687 5.0265 84.4336 5.6967 83.6198 6.4626C78.8806 11.0582 68.684 26.0897 63.514 33.8448C62.5087 35.3288 61.4555 35.999 60.3545 35.999C59.5407 35.999 58.679 35.5682 57.7695 34.898C56.7163 34.0363 54.1313 33.7491 54.1791 30.8768C54.227 26.1854 56.4291 18.2867 57.5301 13.5475C53.844 18.8133 44.1262 33.6055 43.456 34.8022C43.0731 35.4724 42.4029 35.7596 41.6369 35.7596C40.0572 35.7596 38.1902 34.4671 38.1902 32.5523C38.1902 32.0736 38.3338 31.547 38.5732 30.9725C39.0519 30.063 56.3812 4.6914 57.1471 3.4946C57.4822 3.0159 57.9609 2.7765 58.5833 2.7765C59.3013 2.7765 60.163 3.1116 61.0726 3.4946C62.4129 4.1169 63.6576 3.7818 64.998 4.8829C65.6203 5.4573 66.4341 5.9839 66.4341 6.8456C66.4341 6.9892 66.4341 7.1328 66.3862 7.3243C65.3331 10.4838 61.9342 16.8985 61.0726 26.9035C63.9927 22.9302 77.6838 2.7765 78.354 1.7234C78.6412 1.1968 79.2635 1.0053 80.0295 1.0053C81.6571 1.0053 84.7687 2.4414 84.7687 4.4041ZM106.876 11.5848C106.876 19.4356 96.3924 36.1905 86.9618 36.1905C85.8608 36.1905 84.9033 35.9033 84.2331 35.3288C80.9779 32.3129 79.7333 32.0257 78.4886 29.5364C78.2014 28.8662 78.0578 28.1003 78.0578 27.1907C78.0578 18.8612 90.5042 0.670199 97.5413 0.670199C98.1157 0.670199 98.6423 0.8138 99.1689 1.0532C101.131 2.1063 101.083 3.3989 102.903 5.3137C105.009 7.4679 106.876 7.6115 106.876 11.5848ZM101.514 10.6274C101.514 9.4306 100.94 7.9945 99.5523 7.9945C95.1477 7.9945 83.6587 22.3079 83.6587 28.9141C83.6587 30.2545 84.281 31.8342 85.9086 31.8342C90.8872 31.8342 101.514 15.1751 101.514 10.6274ZM141.984 2.2499C141.984 2.5372 141.792 2.9201 141.361 3.351C127.431 16.1325 119.149 29.4407 115.319 35.4246C114.841 36.2384 114.41 36.6213 113.835 36.6213C113.692 36.6213 113.5 36.5735 113.309 36.5256C110.437 35.7596 106.415 34.132 106.415 30.4938C106.415 30.3502 106.415 30.2066 106.463 30.063C107.134 27.095 115.942 9.2391 118.431 2.4414C118.623 1.867 119.101 1.2925 120.202 1.2925C121.974 1.2925 125.324 2.8244 125.324 4.8829C125.324 5.1701 125.277 5.4573 125.133 5.8403C124.559 7.3721 118.192 19.4356 116.612 24.51C119.867 21.3983 132.792 4.5956 136.718 2.4414C138.154 1.6755 139.446 1.3883 140.404 1.3883C141.409 1.3883 141.984 1.7234 141.984 2.2499ZM162.123 4.2127C162.123 4.4999 162.075 4.7871 161.979 5.1701C159.633 12.1114 154.703 31.3076 153.841 34.4193C153.41 35.9033 152.549 36.8128 150.921 36.8128C149.245 36.8128 145.416 35.5203 145.416 33.4618C145.416 32.7438 145.703 31.8342 146.182 30.5896C146.612 29.4407 147.235 27.5258 147.905 25.3238C144.123 25.7067 139.911 26.4727 135.554 27.8131C132.155 32.0736 129.57 35.3288 129.331 35.7596C128.9 36.4298 128.517 36.7171 128.039 36.7171C127.608 36.7171 127.081 36.4298 126.507 35.9033C125.358 34.9937 124.735 34.6107 124.735 34.0842C124.735 33.8927 124.831 33.7012 124.975 33.414C125.501 32.6002 127.129 30.5417 129.331 27.8131C129.187 27.2865 128.996 26.7599 128.996 26.3291C128.996 25.994 129.092 25.7067 129.475 25.611C129.81 25.4674 130.624 25.228 131.677 24.9887C139.623 15.4623 151.687 1.5798 152.692 0.7181C153.314 0.1915 153.745 0 154.176 0C154.846 0 155.517 0.478699 156.953 0.909599C158.676 1.484 162.123 1.9148 162.123 4.2127ZM153.458 6.8934C150.346 9.9093 144.506 16.8506 139.336 23.1696C143.166 22.3079 147.139 21.4462 149.293 20.9196C150.921 15.606 152.644 9.7178 153.458 6.8934ZM204.852 4.4041C204.852 5.0265 204.517 5.6967 203.703 6.4626C198.964 11.0582 188.767 26.0897 183.597 33.8448C182.592 35.3288 181.539 35.999 180.437 35.999C179.624 35.999 178.762 35.5682 177.852 34.898C176.799 34.0363 174.214 33.7491 174.262 30.8768C174.31 26.1854 176.512 18.2867 177.613 13.5475C173.927 18.8133 164.209 33.6055 163.539 34.8022C163.156 35.4724 162.486 35.7596 161.72 35.7596C160.14 35.7596 158.273 34.4671 158.273 32.5523C158.273 32.0736 158.417 31.547 158.656 30.9725C159.135 30.063 176.464 4.6914 177.23 3.4946C177.565 3.0159 178.044 2.7765 178.666 2.7765C179.384 2.7765 180.246 3.1116 181.156 3.4946C182.496 4.1169 183.741 3.7818 185.081 4.8829C185.703 5.4573 186.517 5.9839 186.517 6.8456C186.517 6.9892 186.517 7.1328 186.469 7.3243C185.416 10.4838 182.017 16.8985 181.156 26.9035C184.076 22.9302 197.767 2.7765 198.437 1.7234C198.724 1.1968 199.347 1.0053 200.112 1.0053C201.74 1.0053 204.852 2.4414 204.852 4.4041ZM246.682 8.5689C246.682 9.0955 246.395 9.2391 245.82 10.005C238.352 19.9622 230.549 33.7012 229.975 34.6586C229.353 35.6639 228.587 36.0469 227.869 36.0469C226.193 36.0469 223.847 33.5097 223.847 31.8342C223.847 31.4991 223.895 31.2119 224.087 30.8768C225.619 27.8609 230.071 19.6271 232.081 16.1325C228.874 19.1005 220.161 29.6322 216.092 29.6322C212.646 29.6322 210.874 26.6642 210.874 23.6004C210.874 21.6856 211.162 18.7654 211.401 16.707C208.242 21.3983 200.917 33.0789 199.625 34.8501C199.05 35.616 198.189 35.999 197.327 35.999C195.508 35.999 193.354 34.2278 193.354 32.3608C193.354 31.7864 193.545 31.3076 193.928 30.8768C194.694 29.9673 211.784 4.1169 212.789 2.1542C213.029 1.6755 213.316 1.484 213.603 1.484C214.369 1.484 215.326 2.5372 216.619 3.3989C218.151 4.3563 220.544 4.7871 220.544 7.3243C220.544 7.7551 220.497 8.2338 220.353 8.7604C219.491 12.0156 216.619 20.058 216.092 23.4089C216.045 23.744 215.997 24.3185 216.475 24.3185C216.763 24.3185 217.146 24.1749 217.768 23.744C222.076 20.7282 236.246 5.9839 239.118 3.2074C239.597 2.7765 240.028 2.585 240.602 2.585C241.273 2.585 242.086 2.8723 243.283 3.5425C245.246 4.6914 245.82 5.2179 246.49 7.5158C246.634 7.9945 246.682 8.3296 246.682 8.5689Z" fill="white"/>
</svg>
