<svg width="292" height="27" viewBox="0 0 292 27" fill="none" xmlns="http://www.w3.org/2000/svg">
<path d="M146.053 0.457031C147.355 0.457278 149.817 1.58367 149.817 3.09668C149.817 3.30764 149.782 3.51856 149.677 3.7998C149.254 4.92588 144.574 13.7943 143.413 17.5244C145.806 15.2372 155.306 2.88628 158.192 1.30176C159.248 0.738755 160.199 0.527372 160.902 0.527344C161.641 0.527344 162.063 0.774042 162.063 1.16113C162.063 1.37224 161.923 1.65413 161.606 1.9707C151.366 11.3664 145.278 21.1491 142.463 25.5479C142.111 26.1459 141.794 26.4277 141.372 26.4277C141.267 26.4277 141.126 26.3916 140.985 26.3564C138.874 25.7934 135.918 24.5973 135.918 21.9229C135.918 21.8173 135.918 21.712 135.953 21.6064C136.446 19.4247 142.92 6.29889 144.75 1.30176C144.891 0.879477 145.243 0.457031 146.053 0.457031ZM256.215 0.632812C257.869 0.632812 259.417 2.85018 259.558 4.29297C260.895 3.44845 263.71 1.82926 265.646 1.8291C267.757 1.8291 267.968 3.65978 268.812 5.06738C269.059 5.45446 269.165 5.98195 269.165 6.54492C269.165 11.8586 261.001 16.539 256.145 16.5391H255.546C255.616 18.4041 256.848 21.8173 261.774 23.9639C262.162 24.1398 262.338 24.4216 262.338 24.7031C262.338 25.5828 261.352 26.1104 260.613 26.1104C259.029 26.1101 251.922 24.1042 249.846 16.5742C248.368 18.7912 244.848 24.7031 244.215 25.7588C243.898 26.2513 243.546 26.4277 243.194 26.4277C242.068 26.4274 240.802 24.3516 240.802 23.3662C240.802 22.944 240.942 22.4507 241.294 21.8174C243.088 18.7919 255.152 1.55752 255.581 0.950195C255.722 0.739061 255.933 0.63282 256.215 0.632812ZM78.2266 0.140625C79.599 0.140625 80.1978 0.316438 81.6406 1.30176C82.0627 1.58328 82.2383 2.0056 82.2383 2.35742C82.2383 2.60367 82.1329 2.84951 81.8867 2.88477C80.9014 3.20147 76.3971 3.87053 72.7021 4.46875C71.5409 5.94673 69.2533 9.00838 66.8604 12.4922C69.6756 12.0699 73.5119 11.6826 74.3916 11.6826C75.0955 11.683 76.3268 12.6334 76.749 13.1611C76.7843 13.2315 76.8545 13.3371 76.8545 13.4775C76.8544 13.759 76.608 14.1104 75.9043 14.1104C74.9892 14.1104 68.2328 14.7447 63.7285 17.2432C62.7081 18.8266 61.7927 20.3748 61.0186 21.7471C63.8335 21.1137 68.0561 20.5157 69.042 20.5156C70.2033 20.5156 72.1738 21.1138 72.1738 22.5918V22.6621C72.1374 23.3307 65.3465 24.1397 59.8926 26.3564C59.8222 26.3916 59.7169 26.3926 59.5762 26.3926C58.978 26.3926 58.0632 25.9701 57.2539 25.4072C56.515 24.8794 55.8106 23.8937 55.8105 22.627C55.8105 22.2399 55.8817 21.8177 56.0576 21.3955C56.691 19.6008 64.784 6.65061 66.9307 3.51855C66.7548 3.02607 66.6495 2.49836 66.6494 2.11133C66.6494 1.75955 66.7197 1.47773 66.8955 1.40723C67.7049 1.05533 76.1157 0.175815 77.6289 0.140625H78.2266ZM185.773 0.140625C187.146 0.140625 187.744 0.316596 189.187 1.30176C189.609 1.58328 189.785 2.00552 189.785 2.35742C189.785 2.60361 189.68 2.84942 189.434 2.88477C188.448 3.20147 183.944 3.87053 180.249 4.46875C179.088 5.94673 176.8 9.00838 174.407 12.4922C177.222 12.07 181.057 11.6827 181.938 11.6826C182.641 11.6826 183.874 12.6333 184.296 13.1611C184.331 13.2315 184.401 13.3371 184.401 13.4775C184.401 13.759 184.155 14.1103 183.451 14.1104C182.536 14.1104 175.78 14.7447 171.275 17.2432C170.255 18.8266 169.34 20.3747 168.565 21.7471C171.381 21.1137 175.603 20.5157 176.589 20.5156C177.75 20.5156 179.721 21.1138 179.721 22.5918V22.6621C179.684 23.3307 172.893 24.1397 167.439 26.3564C167.369 26.3916 167.264 26.3926 167.123 26.3926C166.525 26.3926 165.61 25.9701 164.801 25.4072C164.062 24.8794 163.357 23.8937 163.357 22.627C163.357 22.24 163.428 21.8176 163.604 21.3955C164.237 19.6008 172.331 6.65047 174.478 3.51855C174.302 3.02605 174.196 2.49837 174.196 2.11133C174.196 1.75944 174.266 1.47762 174.442 1.40723C175.252 1.05533 183.663 0.175815 185.176 0.140625H185.773ZM287.896 0.140625C289.269 0.140663 289.867 0.316545 291.31 1.30176C291.732 1.58328 291.907 2.00556 291.907 2.35742C291.907 2.60372 291.802 2.84958 291.556 2.88477C290.57 3.20148 286.066 3.87052 282.371 4.46875C281.21 5.94676 278.922 9.00843 276.529 12.4922C279.344 12.0699 283.181 11.6826 284.061 11.6826C284.764 11.6828 285.996 12.6333 286.418 13.1611C286.453 13.2315 286.523 13.337 286.523 13.4775C286.523 13.759 286.277 14.1104 285.573 14.1104C284.657 14.1105 277.901 14.7449 273.397 17.2432C272.377 18.8265 271.463 20.3748 270.688 21.7471C273.504 21.1137 277.727 20.5156 278.712 20.5156C279.873 20.5158 281.844 21.114 281.844 22.5918V22.6621C281.808 23.3307 275.016 24.1398 269.562 26.3564C269.492 26.3916 269.386 26.3926 269.245 26.3926C268.647 26.3925 267.732 25.9701 266.923 25.4072C266.184 24.8794 265.481 23.8937 265.48 22.627C265.48 22.2399 265.551 21.8177 265.727 21.3955C266.36 19.6009 274.453 6.65078 276.6 3.51855C276.424 3.02609 276.318 2.49834 276.318 2.11133C276.318 1.75967 276.389 1.47785 276.564 1.40723C277.374 1.05533 285.785 0.175815 287.298 0.140625H287.896ZM165.959 0.914062C166.979 0.914062 169.514 2.49798 169.514 3.58887C169.514 4.04625 169.302 4.50354 168.845 4.99609C164.411 9.85232 157.795 21.3598 155.93 24.9844C155.472 25.8992 154.945 26.2509 154.452 26.251C153.15 26.251 151.496 23.8586 151.496 22.6973C151.496 22.2751 151.637 21.8528 151.918 21.4307C153.502 19.1081 161.595 6.12276 165.079 1.44238C165.361 1.05535 165.642 0.914102 165.959 0.914062ZM129.394 0C129.816 0 130.204 0.1053 130.591 0.28125C132.033 1.05538 131.998 2.00566 133.335 3.41309C134.883 4.99655 136.256 5.10213 136.256 8.02246C136.256 13.7936 128.55 26.1101 121.617 26.1104C120.808 26.1104 120.104 25.8996 119.611 25.4775C117.218 23.2606 116.304 23.0486 115.389 21.2188C115.178 20.7262 115.071 20.1635 115.071 19.4951C115.071 13.3722 124.221 0.000705029 129.394 0ZM235.95 0C239.61 0 241.51 0.562624 243.234 3.94043C243.727 4.82018 244.678 6.0527 244.678 7.1084C244.677 9.36046 241.616 11.9996 237.71 13.583C239.047 14.9202 239.856 16.7151 239.856 18.5449C239.856 23.7528 233.663 26.1102 229.335 26.1104C227.716 26.1104 224.021 25.4068 222.191 22.3457C222.086 22.5216 221.98 22.7323 221.874 22.9082C221.487 23.6471 220.995 23.9287 220.537 23.9287C219.411 23.9287 218.25 22.3101 218.25 20.5859C218.25 20.0933 218.355 19.5649 218.602 19.0723C219.341 17.629 226.062 9.18366 229.616 4.85547C227.575 5.4537 225.85 6.12247 224.971 6.7207C224.619 6.96694 224.232 7.07324 223.915 7.07324C222.543 7.07293 222.086 5.31347 222.086 4.22266C222.086 3.62458 222.297 3.23754 222.824 3.02637C224.021 2.49852 230.39 5.74067e-05 235.95 0ZM45.5635 0.28125C47.6045 0.281262 49.7158 0.844268 51.7568 2.35742C52.707 3.06125 55.9795 5.03197 55.9795 9.43066C55.9794 16.7149 47.886 26.0399 40.3555 26.04C37.6106 26.04 35.4635 24.9138 34.8301 23.1543C34.4782 23.7876 34.1975 24.3863 33.9512 24.9141C33.5993 25.6882 33.1059 26.0049 32.6133 26.0049C31.4521 26.0047 30.1857 24.3159 30.1855 22.5918C30.1855 22.1343 30.2557 21.7113 30.4668 21.2891C31.1363 19.7043 38.0332 9.74725 41.3408 5.17285C40.2499 5.66551 39.0531 6.26297 37.6807 7.00195C37.364 7.1779 37.0823 7.24902 36.8008 7.24902C35.8154 7.24871 34.0215 5.80558 34.0215 4.75C34.0216 4.46863 34.1621 4.18763 34.5137 4.01172C37.54 2.49855 41.4462 0.28125 45.5635 0.28125ZM197.632 0.597656C198.195 0.597726 198.899 1.37247 199.849 2.00586C200.975 2.70956 202.734 3.02596 202.734 4.89062C202.734 5.20722 202.699 5.55937 202.594 5.94629C201.96 8.3392 199.849 14.2515 199.462 16.7148C199.427 16.9612 199.391 17.3838 199.743 17.3838C199.954 17.3838 200.236 17.2776 200.693 16.9609C203.861 14.7437 214.276 3.90524 216.388 1.86426C216.739 1.54766 217.056 1.40732 217.479 1.40723C217.971 1.40723 218.57 1.61871 219.449 2.11133C220.892 2.95589 221.315 3.34311 221.808 5.03223C221.913 5.38367 221.948 5.62982 221.948 5.80566C221.948 6.19273 221.737 6.29839 221.314 6.86133C215.825 14.1802 210.09 24.2789 209.667 24.9844C209.21 25.7234 208.646 26.0049 208.118 26.0049C206.887 26.0047 205.162 24.1398 205.162 22.9082C205.162 22.6619 205.197 22.4504 205.338 22.2041C206.464 19.9871 209.737 13.9352 211.215 11.3662C208.857 13.5483 202.453 21.2886 199.462 21.2891C196.928 21.2891 195.626 19.1076 195.626 16.8555C195.626 15.4479 195.837 13.3012 196.013 11.7881C193.69 15.2365 188.307 23.8221 187.356 25.125C186.934 25.688 186.3 25.9697 185.667 25.9697C184.33 25.9696 182.746 24.6673 182.746 23.2949C182.746 22.8728 182.888 22.5207 183.169 22.2041C183.736 21.5292 196.292 2.53647 197.033 1.09082C197.209 0.738921 197.421 0.597656 197.632 0.597656ZM116.521 0.246094C117.718 0.246369 120.005 1.30168 120.005 2.74414C120.005 3.20161 119.758 3.69477 119.16 4.25781C115.676 7.63625 108.181 18.686 104.381 24.3867C103.642 25.4775 102.867 25.9697 102.058 25.9697C101.459 25.9696 100.826 25.6527 100.157 25.1602C99.3828 24.527 97.4834 24.3151 97.5186 22.2041C97.5539 18.7555 99.1721 12.9495 99.9814 9.46582C97.2718 13.3367 90.129 24.2093 89.6357 25.0898C89.3543 25.5824 88.8618 25.7939 88.2988 25.7939C87.1377 25.7939 85.7649 24.8439 85.7646 23.4365C85.7646 23.0846 85.8709 22.6967 86.0469 22.2744C86.405 21.5969 99.1349 2.95915 99.7002 2.07617C99.9465 1.72428 100.298 1.54786 100.756 1.54785C101.284 1.54785 101.917 1.79465 102.586 2.07617C103.571 2.53347 104.486 2.28738 105.472 3.09668C105.929 3.51882 106.527 3.90583 106.527 4.53906C106.527 4.64452 106.527 4.75008 106.492 4.89062C105.718 7.21316 103.219 11.9295 102.586 19.2842C104.733 16.3634 114.796 1.54762 115.289 0.773438C115.5 0.386446 115.959 0.246094 116.521 0.246094ZM16.1172 1.37207C16.6802 1.37207 17.4548 1.6181 18.792 1.68848C20.6216 1.75892 21.3954 2.81462 21.3955 3.76465C21.3955 4.15165 21.255 4.57395 20.9736 4.85547C19.1086 6.8613 16.5049 11.7535 14.4287 16.2227C15.1673 16.1875 15.8356 16.1514 16.3984 16.1514C17.5948 16.1514 19.9176 16.5037 19.918 18.0869C19.918 18.5092 19.566 18.8613 18.9326 18.8613C18.6863 18.8613 18.4748 18.8262 18.2285 18.8262C17.2783 18.8262 15.2373 19.1081 12.9854 19.46C11.8594 22.0287 11.1203 24.1399 10.9795 24.9141C10.9091 25.4771 10.3463 25.7236 9.64258 25.7236C8.37574 25.7236 6.61621 24.9141 6.61621 23.8936C6.61621 23.8232 6.61624 23.7178 6.65137 23.6475C6.72175 23.3659 7.35459 22.0632 8.26953 20.2686C5.70236 20.7257 3.59218 21.148 3.37891 21.1836C3.02708 21.254 2.78045 21.289 2.56934 21.2891C1.90073 21.2891 1.61881 21.0075 0.950195 20.2686C0.317004 19.4946 0 18.8257 0 18.1924C9.00334e-05 17.7351 0.141422 17.3128 0.422852 16.8555C0.987838 15.9739 14.6392 2.60316 15.1318 1.89941C15.4133 1.47737 15.7302 1.3721 16.1172 1.37207ZM130.872 5.38379C127.635 5.38379 119.188 15.9055 119.188 20.7617C119.188 21.747 119.646 22.9082 120.843 22.9082C124.502 22.9082 132.314 10.6627 132.314 7.31934C132.314 6.43962 131.892 5.38388 130.872 5.38379ZM47.8154 3.37793C47.3581 3.37794 46.8304 3.41305 46.2324 3.51855C46.6896 3.94068 46.9354 4.46848 46.9355 4.99609C46.9355 5.38319 46.7952 5.80634 46.4785 6.12305C45.9149 6.68695 40.6361 13.7594 36.9062 19.6709C36.8711 19.8467 36.8711 20.0225 36.8711 20.1982C36.8711 21.7816 37.6807 22.5565 38.9824 22.5566C43.9794 22.5566 51.6864 12.4922 51.6865 7.38965C51.6865 4.57445 50.3843 3.37793 47.8154 3.37793ZM232.783 14.9902C231.024 14.9902 228.737 15.4132 226.273 16.3633C225.288 17.6652 224.373 18.9667 223.563 20.1279C224.373 21.2892 226.519 21.8525 228.877 21.8525C232.572 21.8525 236.689 20.3747 236.689 17.2783C236.689 15.2373 234.367 14.9902 232.783 14.9902ZM14.1113 7.88184C11.3665 9.95805 6.79173 14.9558 5.03223 17.2432C6.47495 17.0672 8.26982 16.8557 10.0996 16.6445C11.648 13.5478 13.302 10.134 14.1113 7.88184ZM264.555 4.50391C261.106 4.50411 255.511 9.39563 253.928 12.3867C253.857 12.5274 253.822 12.6679 253.822 12.8086C253.822 13.1957 254.139 13.4775 254.843 13.4775C257.482 13.4771 265.364 7.98784 265.364 5.34863C265.364 4.78559 264.977 4.50391 264.555 4.50391ZM237.64 3.51855C236.901 3.51855 236.091 3.5888 235.282 3.69434C235.564 3.9758 235.739 4.22243 235.739 4.50391C235.739 4.75021 235.599 4.99686 235.317 5.24316C234.965 5.55987 232.854 8.0234 230.355 11.1201C233.593 11.0496 241.405 8.12849 241.405 5.38379C241.405 3.65955 238.801 3.51857 237.64 3.51855Z" fill="white"/>
</svg>
