<svg width="57" height="48" viewBox="0 0 57 48" fill="none" xmlns="http://www.w3.org/2000/svg">
  <path d="M7 39.7308V25.2879C7 22.2436 7.3201 19.6594 7.9603 17.5355C8.6005 15.4115 9.59636 13.7478 10.9479 12.5442C12.3706 11.2698 14.1845 10.3494 16.3896 9.78305C18.6658 9.21667 21.3689 8.93347 24.4988 8.93347H26.206V17.3231H24.7122C22.8627 17.3231 21.4756 17.5001 20.5509 17.8541C19.6261 18.1373 18.9859 18.7036 18.6303 19.5532C18.3457 20.332 18.2035 21.4648 18.2035 22.9516H26.3127V39.7308C25.8147 39.7308 24.89 39.7308 23.5385 39.7308C22.2581 39.7308 20.7643 39.7308 19.0571 39.7308C17.421 39.7308 15.7494 39.7308 14.0422 39.7308C12.4061 39.7308 10.9479 39.7308 9.66749 39.7308C8.3871 39.7308 7.49793 39.7308 7 39.7308ZM30.6873 39.7308V25.2879C30.6873 22.2436 31.0074 19.6594 31.6476 17.5355C32.2878 15.4115 33.2837 13.7478 34.6352 12.5442C36.0579 11.2698 37.8718 10.3494 40.0769 9.78305C42.3532 9.21667 45.0562 8.93347 48.1861 8.93347H49.8933V17.3231H48.3995C46.55 17.3231 45.1629 17.5001 44.2382 17.8541C43.3135 18.1373 42.6733 18.7036 42.3176 19.5532C42.0331 20.332 41.8908 21.4648 41.8908 22.9516H50V39.7308C49.5021 39.7308 48.5773 39.7308 47.2258 39.7308C45.9454 39.7308 44.4516 39.7308 42.7444 39.7308C41.1084 39.7308 39.4367 39.7308 37.7295 39.7308C36.0935 39.7308 34.6352 39.7308 33.3548 39.7308C32.0744 39.7308 31.1853 39.7308 30.6873 39.7308Z" fill="#E81900" />
</svg>