<svg width="311" height="311" viewBox="0 0 311 311" fill="none" xmlns="http://www.w3.org/2000/svg">
<circle cx="155.5" cy="155.5" r="155.5" fill="#2619D1"/>
<g clip-path="url(#clip0_117_476)">
<path d="M68.9915 58.7051L53.4114 73.6639L62.1364 136.612C106.181 118.121 138.173 120.199 162.273 119.991L178.478 105.032C154.378 105.24 122.177 102.954 77.7165 121.653L68.9915 58.7051ZM65.2518 236.332L64.6275 192.288L50.293 207.247V251.912H243.711L259.916 236.332H65.2518Z" fill="#E81900"/>
<path d="M251.402 173.801C212.343 190.421 178.273 192.499 130.697 192.083L249.949 97.9719V58.708H68.9949L77.7198 121.656C120.932 103.373 152.511 105.243 176.403 105.035L64.6309 192.291V236.956H259.295L251.399 173.801H251.402Z" fill="#FFAB00"/>
<path d="M84.7047 214.935H84.4966L79.7194 203.716H75.5635V224.492H79.9275V212.857H80.1326L84.9127 224.492H89.0656V203.716H84.7047V214.935Z" fill="#2619D1"/>
<path d="M172.25 94.6457V94.2295C171.834 94.2295 171.626 94.0214 171.418 93.6052C170.38 91.9435 170.38 89.2412 170.172 86.1258V84.0478H173.079C179.726 88.4118 175.782 95.267 181.388 95.267C184.504 95.267 185.752 93.189 186.165 90.903H185.957C182.842 91.9404 183.255 87.3714 180.348 84.6691C180.14 84.2529 178.894 83.4235 178.686 83.4235H179.102C182.426 82.3861 184.712 80.1 184.712 75.736C184.712 69.7103 180.348 68.2566 174.533 68.2566H162.276V68.4647C162.485 68.4647 162.901 68.6728 162.901 69.2971C163.733 70.9589 163.938 73.8662 163.938 77.4008L163.73 85.2964C163.73 88.6199 163.73 91.5303 162.898 93.6052C162.69 94.0214 162.273 94.2295 161.86 94.2295C161.86 94.2295 161.652 94.2295 161.652 94.4376C161.652 94.6457 161.86 94.6457 161.86 94.6457H172.25ZM170.172 71.3781H172.666C174.952 71.3781 177.86 72.4155 177.86 75.9472C177.86 78.8545 176.406 80.7243 172.666 80.7243H170.172V71.3751V71.3781Z" fill="#2619D1"/>
<path d="M106.184 94.6457C104.314 92.1516 103.277 89.6604 102.444 86.7501C99.95 88.4118 96.8346 89.4523 93.5111 89.6574L106.392 68.2596V68.0515H82.7081L83.5405 76.7765C86.864 74.2824 90.8118 72.4125 95.1758 72.4125C95.8001 72.4125 96.4214 72.4125 97.0457 72.6206L82.0868 94.6427H106.187L106.184 94.6457Z" fill="#2619D1"/>
<path d="M121.966 175.336C122.958 175.502 122.132 174.181 120.811 173.683L120.479 174.015C117.837 175.668 113.048 179.796 109.414 182.767C107.761 184.088 106.277 185.243 105.451 185.741C105.119 186.073 104.956 186.235 104.791 186.567C104.791 187.228 104.956 188.714 105.451 188.714C105.783 188.714 105.946 188.714 106.443 188.22C108.756 186.073 117.014 179.136 121.637 176.165C122.132 175.834 121.969 175.834 121.969 175.339L121.966 175.336Z" fill="#2619D1"/>
<path d="M91.3517 224.492H102.363V220.96H95.7157V215.767H100.909V212.444H95.7157V207.25H102.363V203.716H91.3517V224.492Z" fill="#2619D1"/>
<path d="M130.7 177.749C130.908 177.957 131.116 177.957 131.946 178.165C132.57 178.373 133.191 178.581 133.607 178.165C133.607 178.165 133.815 178.165 133.607 177.957L134.853 169.648C136.723 167.154 139.422 165.284 141.087 163.83C141.711 163.622 141.711 163.206 141.295 162.793C141.087 162.377 139.633 162.585 139.217 162.793L135.477 165.495L136.723 158.64C139.838 155.108 143.786 153.03 143.786 151.993C143.37 151.161 141.292 151.369 140.463 151.785L134.853 156.77C134.437 156.77 134.091 156.839 133.815 156.978C133.607 156.978 132.983 157.602 132.983 157.602C132.567 160.097 130.281 176.301 130.281 176.922C130.073 177.338 130.697 177.338 130.697 177.755L130.7 177.749Z" fill="#2619D1"/>
<path d="M186.518 125.516L186.85 125.185C189.326 123.698 194.281 119.569 197.915 116.598C199.731 115.277 201.218 114.122 201.878 113.791C202.21 113.459 202.373 113.13 202.539 112.798C202.539 112.138 202.207 110.817 201.712 110.817C201.381 110.651 201.218 110.651 200.72 110.983C198.573 113.13 190.481 120.395 185.526 123.037C185.031 123.369 185.194 123.369 185.194 123.864C184.202 123.864 185.194 125.019 186.515 125.516H186.518Z" fill="#2619D1"/>
<path d="M176.822 124.563C176.614 123.731 176.198 123.526 175.99 123.318C174.952 122.485 174.328 121.656 173.082 122.694C171.629 123.318 170.175 125.601 169.135 126.641C168.927 125.809 167.473 125.188 166.019 126.017C165.742 125.878 165.603 125.948 165.603 126.225C165.395 126.849 162.488 143.675 162.279 146.585C162.071 147.002 162.279 147.21 162.279 147.831C162.696 148.247 164.149 149.493 164.774 148.868C164.982 148.66 165.606 148.452 165.606 147.831L166.438 139.314C170.178 143.678 175.371 142.016 176.825 141.184C177.033 140.56 177.863 140.146 177.658 139.314C177.519 139.175 177.241 139.175 176.825 139.314C173.085 139.938 171.007 138.069 170.386 136.82L171.011 136.612C174.126 134.534 178.074 127.679 176.828 124.563H176.822ZM168.927 135.158C168.718 135.366 167.889 135.158 168.094 134.95L167.886 134.742C168.094 132.248 170.588 126.433 173.079 124.768C173.287 124.56 173.496 124.56 173.912 124.768C174.328 126.846 170.588 134.118 168.927 135.155V135.158Z" fill="#2619D1"/>
<path d="M195.726 94.2325C195.518 94.2325 195.101 94.0244 195.101 93.6082C195.101 92.7758 195.518 91.1141 195.934 89.6604L196.35 87.9987H203.829C204.454 90.2847 204.867 92.1546 204.662 93.6082C204.454 94.0244 204.454 94.2325 204.246 94.2325V94.6487H214.219V94.2325C213.803 94.2325 213.387 94.0244 213.182 93.6082C212.144 92.1546 211.936 91.9465 211.104 89.4523L204.249 68.2627H196.977L190.33 86.1288C189.085 89.8685 187.836 92.7758 187.423 93.4001C187.215 94.0244 187.007 94.2325 186.591 94.2325V94.6487H195.732V94.2325H195.726ZM199.882 73.8722C200.02 73.7335 200.09 73.7335 200.09 73.8722L203.413 84.0509H196.766L199.882 73.8722Z" fill="#2619D1"/>
<path d="M224.395 94.6457C224.534 94.6457 224.603 94.5763 224.603 94.4376V94.2295C224.187 94.2295 223.979 94.0214 223.979 93.3971C222.941 91.5273 222.941 88.2037 222.941 84.8802V81.1405L233.12 94.6457H239.559V94.2295C239.351 94.2295 239.351 94.0214 239.143 93.6052C238.105 91.5273 237.897 88.2037 237.897 84.8802V77.6089C237.897 69.5052 239.351 68.4677 239.559 68.4677V68.2596H230.626V68.4677C230.834 68.4677 231.042 68.6758 231.458 69.3001C232.704 70.9619 232.704 74.4935 232.704 77.6089V83.2185H232.287L221.068 68.2596H215.043V68.4677C215.459 68.4677 215.667 68.6758 215.875 69.3001C216.912 70.9619 217.121 74.4935 217.121 77.6089V84.8802C217.121 88.2037 217.121 91.5273 215.875 93.6052C215.667 94.0214 215.459 94.2295 215.043 94.2295V94.4376C215.043 94.5763 215.181 94.6457 215.459 94.6457H224.395Z" fill="#2619D1"/>
<path d="M203.959 203.51H203.751C199.182 203.51 197.104 206.005 197.104 211.198V217.224C197.104 220.547 197.936 224.703 203.751 224.703H203.959C207.699 224.703 210.193 223.458 210.606 218.885V216.183L206.242 215.559V218.261C206.034 219.715 205.826 220.963 203.956 220.963H203.748C201.67 220.963 201.462 219.302 201.462 217.224V210.99C201.462 209.744 201.462 207.25 203.748 207.25H203.956C205.618 207.25 206.034 208.083 206.242 209.744V212.238L210.606 211.822V209.328C210.19 205.172 207.904 203.51 203.959 203.51Z" fill="#2619D1"/>
<path d="M174.096 218.258C174.096 216.596 174.096 215.351 172.226 214.31C173.888 213.686 174.096 212.649 174.096 210.987V208.909C174.096 204.545 171.81 203.716 167.657 203.716H161.423V224.492H165.992V216.805H167.446C168.691 216.805 169.732 216.596 169.732 218.674V222.622C169.732 223.455 169.732 223.868 170.356 224.492H174.72V224.284C174.304 223.729 174.096 223.175 174.096 222.622V218.258ZM169.732 211.403C169.732 212.649 169.524 213.273 167.446 213.273H165.992V207.247H167.446C168.899 207.247 169.732 207.455 169.732 209.325V211.403Z" fill="#2619D1"/>
<path d="M118.983 218.053H118.775L116.284 203.716H112.544L110.258 218.053H110.05L107.972 203.716H103.816L107.348 224.492H112.336L114.414 212.027H114.619L116.489 224.492H121.477L125.009 203.716H120.853L118.983 218.053Z" fill="#2619D1"/>
<path d="M216.837 203.716H212.473V224.492H216.837V203.716Z" fill="#2619D1"/>
<path d="M241.974 203.716L239.688 212.027H239.272L236.986 203.716H232.417L237.194 218.053V224.492H241.766V218.053L246.544 203.716H241.974Z" fill="#2619D1"/>
<path d="M218.704 207.455H222.86V224.492H227.224V207.455H231.377V203.716H218.704V207.455Z" fill="#2619D1"/>
<path d="M185.523 203.716L181.575 211.819H181.367V203.716H177.003V224.492H181.367V218.053L182.405 216.183L185.523 224.492H190.508L185.731 212.652L190.508 203.716H185.523Z" fill="#2619D1"/>
<path d="M119.897 67.2222C111.793 67.2222 106.808 73.6611 106.808 81.5567C106.808 89.8655 112.21 95.4751 119.897 95.4751C127.585 95.4751 132.57 89.4493 132.778 81.5567C132.778 73.2479 127.377 67.2222 119.897 67.2222ZM119.689 92.3627C116.574 92.3627 114.912 86.545 114.912 81.5597C114.912 77.4038 115.949 70.7568 119.689 70.7568C123.013 70.7568 124.466 76.7826 124.466 81.5597C124.466 85.2994 123.013 92.7789 119.689 92.3627Z" fill="#2619D1"/>
<path d="M138.303 212.027H138.098L135.812 203.716H131.032L136.02 218.053V224.492H140.381V218.053L145.369 203.716H140.589L138.303 212.027Z" fill="#2619D1"/>
<path d="M155.008 138.898C153.554 138.274 153.346 138.066 152.101 137.86C151.893 138.069 151.685 138.069 151.063 138.485C147.74 140.563 145.662 153.444 147.116 157.391L147.948 158.637C149.194 159.261 150.026 159.053 151.896 159.469C152.728 159.886 153.141 159.677 153.974 159.261C158.338 156.146 160.208 144.51 158.13 140.771C157.297 138.485 156.26 139.109 155.014 138.901L155.008 138.898ZM152.306 157.18C151.474 158.013 150.644 157.596 150.436 156.764C148.774 153.441 151.682 142.638 153.968 141.389C154.384 140.557 155.005 141.389 155.421 142.013C156.459 143.883 154.797 155.932 152.306 157.18Z" fill="#2619D1"/>
<path d="M149.399 68.4707H149.607C150.023 68.4707 150.231 68.6788 150.439 69.3031C151.893 71.7973 151.685 75.1208 151.477 79.4818H141.919V77.6119C142.127 69.5082 143.373 68.4707 143.373 68.4707H143.789V68.2627H134.024V68.4707H134.232C134.232 68.4707 134.648 68.6788 135.064 69.3031C135.896 70.9649 135.896 74.4965 135.896 77.6119V84.8832C135.688 88.2068 135.688 91.5303 134.651 93.6082C134.443 94.0244 134.235 94.2325 134.027 94.2325C133.818 94.2325 133.818 94.2325 133.818 94.4406C133.818 94.6487 134.027 94.6487 134.027 94.6487H144V94.2325C143.376 94.2325 143.168 94.0244 142.963 93.6082C141.925 91.5303 141.925 88.2068 141.925 84.8832V83.6377H151.483C151.483 83.6377 151.691 83.6377 151.691 84.0539V84.8863C151.483 88.2098 151.274 91.5333 150.237 93.6112C150.029 94.0274 149.613 94.2355 149.405 94.2355V94.6517H159.378V94.2355C159.17 94.2355 158.962 94.2355 158.754 93.6112C158.546 93.6112 158.546 93.4032 158.546 93.4032C157.922 91.1171 157.713 88.2098 157.713 84.8863V77.6149C157.713 70.9679 158.751 68.6819 159.167 68.4738H159.375V68.2657H149.402V68.4738L149.399 68.4707Z" fill="#2619D1"/>
<path d="M152.698 203.51H152.282C147.297 203.51 145.635 207.042 145.635 210.99V217.224C145.635 220.963 146.88 224.703 152.282 224.703H152.698C157.683 224.703 159.345 222.209 159.345 217.224V210.99C159.345 206.213 157.475 203.51 152.698 203.51ZM154.984 217.221C154.984 218.882 154.776 220.96 152.698 220.96H152.49C150.412 220.96 149.996 219.091 149.996 217.221V210.987C149.996 209.325 150.204 207.247 152.49 207.247H152.698C154.568 207.247 154.984 209.117 154.984 211.195V217.221Z" fill="#2619D1"/>
</g>
<defs>
<clipPath id="clip0_117_476">
<rect width="209.906" height="193.62" fill="white" transform="translate(50.0938 58.4429)"/>
</clipPath>
</defs>
</svg>
